<svg xmlns="http://www.w3.org/2000/svg" width="253.26" height="202.61" viewBox="0 0 253.26 202.61">
  <title>assumptions map</title>
  <g>
    <path d="M99.64,2.08v-1h1v1ZM99.7,8.3V3.24h.87V8.3Z" transform="translate(-0.93 -1.08)" style="fill: #3d3a3a"/>
    <path d="M108.58,8.3V5.08a2.38,2.38,0,0,0,0-.49,1,1,0,0,0-.17-.38.83.83,0,0,0-.31-.24,1.24,1.24,0,0,0-.5-.09,1,1,0,0,0-.43.09,1,1,0,0,0-.34.25,1.24,1.24,0,0,0-.35.62,3.19,3.19,0,0,0-.08.77V8.3h-.85V5.08a2.38,2.38,0,0,0,0-.49.88.88,0,0,0-.16-.38A.83.83,0,0,0,105,4a1.24,1.24,0,0,0-.5-.09A1,1,0,0,0,104,4a1.16,1.16,0,0,0-.37.33,1.38,1.38,0,0,0-.27.6,3.27,3.27,0,0,0-.07.68V8.3h-.85V3.24h.74l.08.72a1.32,1.32,0,0,1,.59-.64,1.73,1.73,0,0,1,.83-.21,1.76,1.76,0,0,1,1,.24,1.37,1.37,0,0,1,.56.72,1.29,1.29,0,0,1,.26-.42,1.57,1.57,0,0,1,.38-.3,1.7,1.7,0,0,1,.44-.18,2,2,0,0,1,.48-.06,1.55,1.55,0,0,1,1.27.51A2.06,2.06,0,0,1,109.43,5V8.3Z" transform="translate(-0.93 -1.08)" style="fill: #3d3a3a"/>
    <path d="M115.69,5.77a3.72,3.72,0,0,1-.2,1.22,2.4,2.4,0,0,1-.57.94,2.25,2.25,0,0,1-.6.37,2.14,2.14,0,0,1-.79.14,2.1,2.1,0,0,1-.43,0,2.83,2.83,0,0,1-.41-.14,1.54,1.54,0,0,1-.37-.23,1,1,0,0,1-.26-.3v2.75h-.85V3.25H112l.06.66a1.39,1.39,0,0,1,.65-.59,1.9,1.9,0,0,1,.86-.2,2.11,2.11,0,0,1,.82.14,1.73,1.73,0,0,1,.61.41,2.27,2.27,0,0,1,.54.92A3.74,3.74,0,0,1,115.69,5.77Zm-.87,0a4.05,4.05,0,0,0-.07-.7,2,2,0,0,0-.22-.62,1.22,1.22,0,0,0-1.14-.62,1.14,1.14,0,0,0-.48.09,1.16,1.16,0,0,0-.34.24,1.36,1.36,0,0,0-.44.7,3.34,3.34,0,0,0-.12.91,3.26,3.26,0,0,0,.12.9,1.43,1.43,0,0,0,.44.71,1.36,1.36,0,0,0,.34.23,1.14,1.14,0,0,0,.48.1,1.37,1.37,0,0,0,.7-.17,1.45,1.45,0,0,0,.44-.45,2.14,2.14,0,0,0,.22-.63A4,4,0,0,0,114.82,5.78Z" transform="translate(-0.93 -1.08)" style="fill: #3d3a3a"/>
    <path d="M121.27,5.77a4.17,4.17,0,0,1-.15,1.13,2.15,2.15,0,0,1-.57.94,2.2,2.2,0,0,1-.67.43,2.35,2.35,0,0,1-.86.16,2.41,2.41,0,0,1-.87-.16,2,2,0,0,1-.66-.43,2.15,2.15,0,0,1-.57-.94,4.17,4.17,0,0,1-.15-1.13,4.11,4.11,0,0,1,.15-1.13,2,2,0,0,1,.57-.94,1.89,1.89,0,0,1,.66-.43,2.21,2.21,0,0,1,.87-.16,2.16,2.16,0,0,1,.86.16,2.1,2.1,0,0,1,1.24,1.37A4.11,4.11,0,0,1,121.27,5.77Zm-.87,0a4.14,4.14,0,0,0-.1-.87,1.48,1.48,0,0,0-.37-.7,1.16,1.16,0,0,0-.39-.26,1.21,1.21,0,0,0-.52-.1,1.25,1.25,0,0,0-.53.1,1,1,0,0,0-.38.26,1.39,1.39,0,0,0-.37.7,3.57,3.57,0,0,0-.1.87,3.57,3.57,0,0,0,.1.87,1.44,1.44,0,0,0,.37.7,1.34,1.34,0,0,0,.38.26,1.43,1.43,0,0,0,.53.1,1.38,1.38,0,0,0,.52-.1,1.56,1.56,0,0,0,.39-.26,1.53,1.53,0,0,0,.37-.7A4.14,4.14,0,0,0,120.4,5.77Z" transform="translate(-0.93 -1.08)" style="fill: #3d3a3a"/>
    <path d="M125.47,4.07a1,1,0,0,0-.24,0H125a1.23,1.23,0,0,0-.55.11,1.38,1.38,0,0,0-.41.29,1.2,1.2,0,0,0-.25.34,1.88,1.88,0,0,0-.14.42,3.11,3.11,0,0,0-.06.44c0,.14,0,.28,0,.42V8.3h-.84V3.24h.75l.07.89a1.32,1.32,0,0,1,.61-.7,1.87,1.87,0,0,1,.9-.22l.4,0Z" transform="translate(-0.93 -1.08)" style="fill: #3d3a3a"/>
    <path d="M129.3,8.23l-.42.09a3.25,3.25,0,0,1-.59,0,1.66,1.66,0,0,1-.68-.12,1.19,1.19,0,0,1-.43-.31A1.22,1.22,0,0,1,127,7.5a2.07,2.07,0,0,1-.06-.5V4h-1V3.24h1V2l.85-.2V3.24h1.5V4h-1.5V6.9a.73.73,0,0,0,.16.53.75.75,0,0,0,.52.16h.29l.28,0,.3,0Z" transform="translate(-0.93 -1.08)" style="fill: #3d3a3a"/>
    <path d="M134.77,8.25l-.27.09a1.36,1.36,0,0,1-.29,0,.68.68,0,0,1-.54-.23.79.79,0,0,1-.19-.54h0a1.61,1.61,0,0,1-.66.6,2.07,2.07,0,0,1-1,.23,2,2,0,0,1-.77-.14,1.63,1.63,0,0,1-.54-.35,1.58,1.58,0,0,1-.32-.5,1.44,1.44,0,0,1-.11-.57,1.59,1.59,0,0,1,.08-.51,1.36,1.36,0,0,1,.3-.5,1.63,1.63,0,0,1,.55-.38,2.33,2.33,0,0,1,.87-.19l1.54-.09V4.83a1.9,1.9,0,0,0-.05-.4.69.69,0,0,0-.21-.37.89.89,0,0,0-.33-.19,1.43,1.43,0,0,0-.5-.07,1.5,1.5,0,0,0-.57.08.92.92,0,0,0-.35.22.81.81,0,0,0-.25.61h-.83a1.4,1.4,0,0,1,.44-1.06,1.55,1.55,0,0,1,.67-.41,2.86,2.86,0,0,1,.89-.13,2.2,2.2,0,0,1,1.17.27,1.58,1.58,0,0,1,.61.7,1.94,1.94,0,0,1,.15.78V7.31a.38.38,0,0,0,.07.27.33.33,0,0,0,.21.07h.14l.08,0Zm-1.34-2.39-1.36.08a1.32,1.32,0,0,0-.39.06,1.19,1.19,0,0,0-.36.16.7.7,0,0,0-.26.28.76.76,0,0,0-.1.41.87.87,0,0,0,.23.6,1,1,0,0,0,.77.27,1.78,1.78,0,0,0,.56-.1,1.37,1.37,0,0,0,.48-.31,1.48,1.48,0,0,0,.33-.53,2.17,2.17,0,0,0,.1-.62Z" transform="translate(-0.93 -1.08)" style="fill: #3d3a3a"/>
    <path d="M139.36,8.3V5.09a1.39,1.39,0,0,0-.26-.89,1,1,0,0,0-.85-.32,1,1,0,0,0-.65.21,1.43,1.43,0,0,0-.45.57,1.77,1.77,0,0,0-.16.64c0,.24,0,.45,0,.65V8.3h-.85V3.24h.74l.07.76a1.05,1.05,0,0,1,.27-.39,1.46,1.46,0,0,1,.38-.27,1.67,1.67,0,0,1,.44-.17,1.72,1.72,0,0,1,.44-.06,1.67,1.67,0,0,1,1.31.49A2,2,0,0,1,140.21,5V8.3Z" transform="translate(-0.93 -1.08)" style="fill: #3d3a3a"/>
    <path d="M144.59,8.23l-.42.09a3.25,3.25,0,0,1-.59,0,1.66,1.66,0,0,1-.68-.12,1.19,1.19,0,0,1-.43-.31,1.22,1.22,0,0,1-.22-.44,2.07,2.07,0,0,1-.06-.5V4h-1V3.24h1V2l.85-.2V3.24h1.5V4H143V6.9a.73.73,0,0,0,.16.53.75.75,0,0,0,.52.16H144l.28,0,.3,0Z" transform="translate(-0.93 -1.08)" style="fill: #3d3a3a"/>
  </g>
  <g>
    <path d="M100.08,201.52l-.07-.77a1.37,1.37,0,0,1-.62.66,1.89,1.89,0,0,1-.88.23,1.67,1.67,0,0,1-1.3-.49,2,2,0,0,1-.43-1.37v-3.32h.85v3.2a1.47,1.47,0,0,0,.24.89,1,1,0,0,0,.84.32,1,1,0,0,0,.47-.11,1.59,1.59,0,0,0,.37-.27,1.36,1.36,0,0,0,.33-.63,3.37,3.37,0,0,0,.09-.77v-2.63h.85v5.06Z" transform="translate(-0.93 -1.08)" style="fill: #3d3a3a"/>
    <path d="M105.92,201.52v-3.21a1.39,1.39,0,0,0-.25-.89,1,1,0,0,0-.86-.32,1.05,1.05,0,0,0-.65.21,1.5,1.5,0,0,0-.45.57,1.59,1.59,0,0,0-.15.64c0,.24,0,.45,0,.65v2.35h-.85v-5.06h.74l.07.76a1.36,1.36,0,0,1,.27-.39,1.46,1.46,0,0,1,.38-.27,1.82,1.82,0,0,1,.44-.17,1.72,1.72,0,0,1,.44-.06,1.65,1.65,0,0,1,1.31.49,2,2,0,0,1,.44,1.37v3.33Z" transform="translate(-0.93 -1.08)" style="fill: #3d3a3a"/>
    <path d="M108.47,195.3v-1h1v1Zm.06,6.22v-5.06h.87v5.06Z" transform="translate(-0.93 -1.08)" style="fill: #3d3a3a"/>
    <path d="M117.41,201.52V198.3a2.38,2.38,0,0,0,0-.49,1.09,1.09,0,0,0-.16-.38.87.87,0,0,0-.32-.24,1.21,1.21,0,0,0-.5-.09,1,1,0,0,0-.43.09,1,1,0,0,0-.34.25,1.23,1.23,0,0,0-.34.62,3.25,3.25,0,0,0-.09.77v2.69h-.85V198.3a2.43,2.43,0,0,0,0-.49,1.09,1.09,0,0,0-.16-.38.87.87,0,0,0-.32-.24,1.21,1.21,0,0,0-.5-.09,1,1,0,0,0-.48.12,1.33,1.33,0,0,0-.38.33,1.37,1.37,0,0,0-.26.6,3.31,3.31,0,0,0-.08.68v2.69h-.85v-5.06H112l.08.72a1.29,1.29,0,0,1,.6-.64,1.7,1.7,0,0,1,.82-.21,1.8,1.8,0,0,1,1,.24,1.39,1.39,0,0,1,.55.72,1.54,1.54,0,0,1,.64-.72,1.77,1.77,0,0,1,.45-.18,1.84,1.84,0,0,1,.47-.06,1.57,1.57,0,0,1,1.28.51,2.11,2.11,0,0,1,.41,1.35v3.33Z" transform="translate(-0.93 -1.08)" style="fill: #3d3a3a"/>
    <path d="M124.52,199a3.67,3.67,0,0,1-.19,1.22,2.42,2.42,0,0,1-.58.94,2,2,0,0,1-1.39.51,2,2,0,0,1-.42,0,2.59,2.59,0,0,1-.42-.14,1.69,1.69,0,0,1-.36-.23,1.27,1.27,0,0,1-.27-.3v2.75H120v-7.22h.75l.06.66a1.44,1.44,0,0,1,.65-.59,2.07,2.07,0,0,1,.86-.2,2.37,2.37,0,0,1,.83.14,1.78,1.78,0,0,1,.6.41,2.4,2.4,0,0,1,.55.92A3.74,3.74,0,0,1,124.52,199Zm-.87,0a4,4,0,0,0-.06-.7,2,2,0,0,0-.23-.62,1.19,1.19,0,0,0-.44-.45,1.28,1.28,0,0,0-.7-.17,1.09,1.09,0,0,0-.47.09,1.45,1.45,0,0,0-.35.24,1.43,1.43,0,0,0-.44.7,3.39,3.39,0,0,0-.12.91,3.26,3.26,0,0,0,.12.9,1.46,1.46,0,0,0,.44.71,1.41,1.41,0,0,0,.35.23,1,1,0,0,0,.47.1,1.37,1.37,0,0,0,.7-.17,1.35,1.35,0,0,0,.44-.45,2.15,2.15,0,0,0,.23-.63A4,4,0,0,0,123.65,199Z" transform="translate(-0.93 -1.08)" style="fill: #3d3a3a"/>
    <path d="M130.1,199a4.17,4.17,0,0,1-.15,1.13,2.15,2.15,0,0,1-.57.94,2.28,2.28,0,0,1-.66.43,2.41,2.41,0,0,1-.87.16,2.31,2.31,0,0,1-.86-.16,2.2,2.2,0,0,1-.67-.43,2.15,2.15,0,0,1-.57-.94,4.17,4.17,0,0,1-.15-1.13,4.11,4.11,0,0,1,.15-1.13,2.1,2.1,0,0,1,1.24-1.37,2.13,2.13,0,0,1,.86-.16,2.21,2.21,0,0,1,.87.16,2.09,2.09,0,0,1,.66.43,2,2,0,0,1,.57.94A4.11,4.11,0,0,1,130.1,199Zm-.87,0a3.57,3.57,0,0,0-.1-.87,1.48,1.48,0,0,0-.37-.7,1.12,1.12,0,0,0-.38-.26,1.25,1.25,0,0,0-.53-.1,1.21,1.21,0,0,0-.52.1,1.16,1.16,0,0,0-.39.26,1.48,1.48,0,0,0-.37.7,3.83,3.83,0,0,0,0,1.74,1.53,1.53,0,0,0,.37.7,1.56,1.56,0,0,0,.39.26,1.38,1.38,0,0,0,.52.1,1.43,1.43,0,0,0,.53-.1,1.5,1.5,0,0,0,.38-.26,1.53,1.53,0,0,0,.37-.7A3.57,3.57,0,0,0,129.23,199Z" transform="translate(-0.93 -1.08)" style="fill: #3d3a3a"/>
    <path d="M134.3,197.29a.85.85,0,0,0-.23,0h-.24a1.33,1.33,0,0,0-.54.11,1.31,1.31,0,0,0-.42.29,1.16,1.16,0,0,0-.24.34,1.48,1.48,0,0,0-.14.42,3.11,3.11,0,0,0-.06.44c0,.14,0,.28,0,.42v2.25h-.84v-5.06h.75l.07.89a1.34,1.34,0,0,1,.62-.7,1.81,1.81,0,0,1,.89-.22,2.69,2.69,0,0,1,.4,0Z" transform="translate(-0.93 -1.08)" style="fill: #3d3a3a"/>
    <path d="M138.13,201.45l-.41.09a3.45,3.45,0,0,1-.6.05,1.69,1.69,0,0,1-.68-.12,1.15,1.15,0,0,1-.42-.31,1,1,0,0,1-.22-.44,1.68,1.68,0,0,1-.07-.5v-3h-1v-.73h1v-1.29l.85-.2v1.49h1.5v.73h-1.5v2.93a.73.73,0,0,0,.17.53.74.74,0,0,0,.51.16h.29l.28,0,.3-.05Z" transform="translate(-0.93 -1.08)" style="fill: #3d3a3a"/>
    <path d="M143.6,201.47a1,1,0,0,1-.27.09,1.29,1.29,0,0,1-.29,0,.66.66,0,0,1-.53-.23.8.8,0,0,1-.2-.54h0a1.58,1.58,0,0,1-.65.6,2.11,2.11,0,0,1-1,.23,1.94,1.94,0,0,1-.76-.14,1.79,1.79,0,0,1-.55-.35,1.58,1.58,0,0,1-.32-.5,1.65,1.65,0,0,1-.11-.57,1.61,1.61,0,0,1,.09-.51,1.22,1.22,0,0,1,.29-.5,1.73,1.73,0,0,1,.55-.38,2.38,2.38,0,0,1,.87-.19l1.54-.09v-.37a1.87,1.87,0,0,0,0-.4.71.71,0,0,0-.22-.37.85.85,0,0,0-.32-.19,1.46,1.46,0,0,0-.51-.07,1.82,1.82,0,0,0-.57.08,1,1,0,0,0-.35.22.81.81,0,0,0-.25.61h-.83a1.57,1.57,0,0,1,.13-.61,1.39,1.39,0,0,1,.31-.45,1.59,1.59,0,0,1,.68-.41,2.8,2.8,0,0,1,.88-.13,2.2,2.2,0,0,1,1.17.27,1.57,1.57,0,0,1,.61.7,1.94,1.94,0,0,1,.15.78v2.45a.38.38,0,0,0,.08.27.3.3,0,0,0,.2.07h.14l.08,0Zm-1.34-2.39-1.36.08a1.76,1.76,0,0,0-.39.06,1.46,1.46,0,0,0-.36.16.78.78,0,0,0-.26.28.76.76,0,0,0-.1.41.9.9,0,0,0,.23.6,1,1,0,0,0,.77.27,1.78,1.78,0,0,0,.56-.1,1.21,1.21,0,0,0,.48-.31,1.48,1.48,0,0,0,.33-.53,1.87,1.87,0,0,0,.1-.62Z" transform="translate(-0.93 -1.08)" style="fill: #3d3a3a"/>
    <path d="M148.19,201.52v-3.21a1.39,1.39,0,0,0-.25-.89,1,1,0,0,0-.86-.32,1.05,1.05,0,0,0-.65.21,1.5,1.5,0,0,0-.45.57,1.59,1.59,0,0,0-.15.64c0,.24,0,.45,0,.65v2.35H145v-5.06h.74l.07.76a1.36,1.36,0,0,1,.27-.39,1.46,1.46,0,0,1,.38-.27,1.82,1.82,0,0,1,.44-.17,1.72,1.72,0,0,1,.44-.06,1.65,1.65,0,0,1,1.31.49,2,2,0,0,1,.44,1.37v3.33Z" transform="translate(-0.93 -1.08)" style="fill: #3d3a3a"/>
    <path d="M153.42,201.45l-.41.09a3.45,3.45,0,0,1-.6.05,1.69,1.69,0,0,1-.68-.12,1.15,1.15,0,0,1-.42-.31,1,1,0,0,1-.22-.44,1.68,1.68,0,0,1-.07-.5v-3h-1v-.73h1v-1.29l.85-.2v1.49h1.5v.73h-1.5v2.93a.73.73,0,0,0,.17.53.74.74,0,0,0,.51.16h.29l.28,0,.3-.05Z" transform="translate(-0.93 -1.08)" style="fill: #3d3a3a"/>
  </g>
  <g>
    <path d="M217.15,94.38l-.07-.77a1.37,1.37,0,0,1-.62.66,1.89,1.89,0,0,1-.88.23,1.67,1.67,0,0,1-1.3-.49,2,2,0,0,1-.43-1.37V89.32h.85v3.2a1.47,1.47,0,0,0,.24.89,1,1,0,0,0,.84.32,1,1,0,0,0,.47-.11,1.59,1.59,0,0,0,.37-.27,1.36,1.36,0,0,0,.33-.63A3.37,3.37,0,0,0,217,92V89.32h.85v5.06Z" transform="translate(-0.93 -1.08)" style="fill: #3d3a3a"/>
    <path d="M223,94.38V91.17a1.39,1.39,0,0,0-.25-.89,1,1,0,0,0-.86-.32,1.07,1.07,0,0,0-.65.21,1.61,1.61,0,0,0-.45.57,1.59,1.59,0,0,0-.15.64c0,.24,0,.45,0,.65v2.35h-.85V89.32h.74l.07.76a1.36,1.36,0,0,1,.27-.39,1.46,1.46,0,0,1,.38-.27,1.82,1.82,0,0,1,.44-.17,1.78,1.78,0,0,1,.44-.06,1.65,1.65,0,0,1,1.31.49,2,2,0,0,1,.44,1.37v3.33Z" transform="translate(-0.93 -1.08)" style="fill: #3d3a3a"/>
    <path d="M229,94.38l-1.58-2.44-1,1.08v1.36h-.85V87.16h.85v4.71l2.29-2.55h1l-1.8,2,2,3.06Z" transform="translate(-0.93 -1.08)" style="fill: #3d3a3a"/>
    <path d="M234.29,94.38V91.17a1.39,1.39,0,0,0-.25-.89,1,1,0,0,0-.86-.32,1.07,1.07,0,0,0-.65.21,1.5,1.5,0,0,0-.45.57,1.59,1.59,0,0,0-.15.64c0,.24,0,.45,0,.65v2.35h-.85V89.32h.74l.07.76a1.36,1.36,0,0,1,.27-.39,1.46,1.46,0,0,1,.38-.27,1.82,1.82,0,0,1,.44-.17,1.72,1.72,0,0,1,.44-.06,1.65,1.65,0,0,1,1.31.49,2,2,0,0,1,.44,1.37v3.33Z" transform="translate(-0.93 -1.08)" style="fill: #3d3a3a"/>
    <path d="M241,91.85a4.17,4.17,0,0,1-.15,1.13,2.15,2.15,0,0,1-.57.94,2.28,2.28,0,0,1-.66.43,2.41,2.41,0,0,1-.87.16,2.31,2.31,0,0,1-.86-.16,2.2,2.2,0,0,1-.67-.43,2.15,2.15,0,0,1-.57-.94,4.17,4.17,0,0,1-.15-1.13,4.11,4.11,0,0,1,.15-1.13,2.1,2.1,0,0,1,1.24-1.37,2.13,2.13,0,0,1,.86-.16,2.21,2.21,0,0,1,.87.16,2.09,2.09,0,0,1,.66.43,2,2,0,0,1,.57.94A4.11,4.11,0,0,1,241,91.85Zm-.87,0A3.57,3.57,0,0,0,240,91a1.39,1.39,0,0,0-.37-.7,1.12,1.12,0,0,0-.38-.26,1.25,1.25,0,0,0-.53-.1,1.21,1.21,0,0,0-.52.1,1.16,1.16,0,0,0-.39.26,1.48,1.48,0,0,0-.37.7,3.83,3.83,0,0,0,0,1.74,1.53,1.53,0,0,0,.37.7,1.56,1.56,0,0,0,.39.26,1.38,1.38,0,0,0,.52.1,1.43,1.43,0,0,0,.53-.1,1.5,1.5,0,0,0,.38-.26,1.44,1.44,0,0,0,.37-.7A3.57,3.57,0,0,0,240.14,91.85Z" transform="translate(-0.93 -1.08)" style="fill: #3d3a3a"/>
    <path d="M247.48,94.38h-.82l-1.32-3.87L244,94.38h-.81l-1.3-5.06h.84l1,3.82L245,89.38h.73L247,93.14l1-3.82h.83Z" transform="translate(-0.93 -1.08)" style="fill: #3d3a3a"/>
    <path d="M253.34,94.38V91.17a1.39,1.39,0,0,0-.25-.89,1,1,0,0,0-.86-.32,1.05,1.05,0,0,0-.65.21,1.61,1.61,0,0,0-.45.57,1.59,1.59,0,0,0-.15.64c0,.24,0,.45,0,.65v2.35h-.85V89.32h.74l.07.76a1.36,1.36,0,0,1,.27-.39,1.46,1.46,0,0,1,.38-.27,1.82,1.82,0,0,1,.44-.17,1.72,1.72,0,0,1,.44-.06,1.65,1.65,0,0,1,1.31.49,2,2,0,0,1,.44,1.37v3.33Z" transform="translate(-0.93 -1.08)" style="fill: #3d3a3a"/>
  </g>
  <g>
    <path d="M4.33,94.38,2.75,91.94,1.78,93v1.36H.93V87.16h.85v4.71l2.29-2.55h1l-1.8,2,2,3.06Z" transform="translate(-0.93 -1.08)" style="fill: #3d3a3a"/>
    <path d="M9.62,94.38V91.17a1.39,1.39,0,0,0-.25-.89A1,1,0,0,0,8.51,90a1.05,1.05,0,0,0-.65.21,1.5,1.5,0,0,0-.45.57,1.59,1.59,0,0,0-.15.64c0,.24,0,.45,0,.65v2.35H6.38V89.32h.74l.07.76a1.36,1.36,0,0,1,.27-.39,1.46,1.46,0,0,1,.38-.27,1.82,1.82,0,0,1,.44-.17,1.72,1.72,0,0,1,.44-.06,1.65,1.65,0,0,1,1.31.49,2,2,0,0,1,.44,1.37v3.33Z" transform="translate(-0.93 -1.08)" style="fill: #3d3a3a"/>
    <path d="M16.34,91.85A4.17,4.17,0,0,1,16.19,93a2.15,2.15,0,0,1-.57.94,2.2,2.2,0,0,1-.67.43,2.31,2.31,0,0,1-.86.16,2.41,2.41,0,0,1-.87-.16,2.28,2.28,0,0,1-.66-.43A2.15,2.15,0,0,1,12,93a4.17,4.17,0,0,1-.15-1.13A4.11,4.11,0,0,1,12,90.72a2,2,0,0,1,.57-.94,2.09,2.09,0,0,1,.66-.43,2.21,2.21,0,0,1,.87-.16,2.13,2.13,0,0,1,.86.16,2.1,2.1,0,0,1,1.24,1.37A4.11,4.11,0,0,1,16.34,91.85Zm-.87,0a3.57,3.57,0,0,0-.1-.87,1.48,1.48,0,0,0-.37-.7,1.16,1.16,0,0,0-.39-.26,1.21,1.21,0,0,0-.52-.1,1.25,1.25,0,0,0-.53.1,1.22,1.22,0,0,0-.38.26,1.48,1.48,0,0,0-.37.7,3.83,3.83,0,0,0,0,1.74,1.53,1.53,0,0,0,.37.7,1.7,1.7,0,0,0,.38.26,1.43,1.43,0,0,0,.53.1,1.38,1.38,0,0,0,.52-.1,1.56,1.56,0,0,0,.39-.26,1.53,1.53,0,0,0,.37-.7A3.57,3.57,0,0,0,15.47,91.85Z" transform="translate(-0.93 -1.08)" style="fill: #3d3a3a"/>
    <path d="M22.81,94.38H22l-1.32-3.87-1.35,3.87h-.81l-1.3-5.06h.84l1,3.82,1.29-3.76H21l1.27,3.76,1-3.82h.83Z" transform="translate(-0.93 -1.08)" style="fill: #3d3a3a"/>
    <path d="M28.67,94.38V91.17a1.45,1.45,0,0,0-.25-.89,1,1,0,0,0-.86-.32,1.05,1.05,0,0,0-.65.21,1.5,1.5,0,0,0-.45.57,1.59,1.59,0,0,0-.15.64c0,.24,0,.45,0,.65v2.35h-.85V89.32h.74l.07.76a1.36,1.36,0,0,1,.27-.39,1.46,1.46,0,0,1,.38-.27,1.82,1.82,0,0,1,.44-.17,1.72,1.72,0,0,1,.44-.06,1.65,1.65,0,0,1,1.31.49,2,2,0,0,1,.44,1.37v3.33Z" transform="translate(-0.93 -1.08)" style="fill: #3d3a3a"/>
  </g>
  <line x1="32.9" y1="89.92" x2="208.9" y2="89.92" style="fill: #3d3a3a;stroke: #000;stroke-miterlimit: 10;stroke-width: 2px"/>
  <path d="M179.83,28" transform="translate(-0.93 -1.08)"/>
  <g>
    <path d="M164.83,30" transform="translate(-0.93 -1.08)"/>
    <line x1="166.9" y1="36.92" x2="166.9" y2="36.92"/>
    <path d="M148.83,19V41h14q4-4,8-8V19" transform="translate(-0.93 -1.08)" style="fill: #00b49d"/>
    <polyline points="169.9 31.93 161.9 31.93 161.9 39.92" style="opacity: 0.07"/>
  </g>
  <path d="M203.83,31" transform="translate(-0.93 -1.08)"/>
  <line x1="205.9" y1="37.92" x2="205.9" y2="37.92"/>
  <path d="M187.83,20V42h14q4-4,8-8V20" transform="translate(-0.93 -1.08)" style="fill: #0089cf"/>
  <polyline points="208.9 32.92 200.9 32.92 200.9 40.92" style="opacity: 0.07"/>
  <path d="M181.83,58" transform="translate(-0.93 -1.08)"/>
  <line x1="183.9" y1="64.92" x2="183.9" y2="64.92"/>
  <path d="M165.83,47V69h14q4-4,8-8V47" transform="translate(-0.93 -1.08)" style="fill: #fdb913"/>
  <polyline points="186.9 59.92 178.9 59.92 178.9 67.92" style="opacity: 0.07"/>
  <g>
    <path d="M151.83,116" transform="translate(-0.93 -1.08)"/>
    <line x1="153.9" y1="122.92" x2="153.9" y2="122.92"/>
    <path d="M135.83,105v22h14q4-4,8-8V105" transform="translate(-0.93 -1.08)" style="fill: #00b49d"/>
    <polyline points="156.9 117.92 148.9 117.92 148.9 125.92" style="opacity: 0.07"/>
  </g>
  <g>
    <path d="M104.83,125" transform="translate(-0.93 -1.08)"/>
    <line x1="106.9" y1="131.92" x2="106.9" y2="131.92"/>
    <path d="M88.83,114v22h14l8-8V114" transform="translate(-0.93 -1.08)" style="fill: #00b49d"/>
    <polyline points="109.9 126.92 101.9 126.92 101.9 134.93" style="opacity: 0.07"/>
  </g>
  <g>
    <path d="M107.83,66" transform="translate(-0.93 -1.08)"/>
    <line x1="109.9" y1="72.92" x2="109.9" y2="72.92"/>
    <path d="M91.83,55V77h14q4-4,8-8V55" transform="translate(-0.93 -1.08)" style="fill: #00b49d"/>
    <polyline points="112.9 67.92 104.9 67.92 104.9 75.92" style="opacity: 0.07"/>
  </g>
  <path d="M145.83,72" transform="translate(-0.93 -1.08)"/>
  <line x1="147.9" y1="78.92" x2="147.9" y2="78.92"/>
  <path d="M129.83,61V83h14q4-4,8-8V61" transform="translate(-0.93 -1.08)" style="fill: #fdb913"/>
  <polyline points="150.9 73.92 142.9 73.92 142.9 81.92" style="opacity: 0.07"/>
  <line x1="200.9" y1="122.92" x2="200.9" y2="122.92"/>
  <path d="M181.83,110v22h14l8-8V110" transform="translate(-0.93 -1.08)" style="fill: #0089cf"/>
  <polyline points="202.9 122.92 194.9 122.92 194.9 130.93" style="opacity: 0.07"/>
  <path d="M167.83,163" transform="translate(-0.93 -1.08)"/>
  <line x1="169.9" y1="169.92" x2="169.9" y2="169.92"/>
  <path d="M151.83,152v22h14l8-8V152" transform="translate(-0.93 -1.08)" style="fill: #fdb913"/>
  <polyline points="172.9 164.93 164.9 164.93 164.9 172.93" style="opacity: 0.07"/>
  <path d="M60.83,116" transform="translate(-0.93 -1.08)"/>
  <line x1="62.9" y1="122.92" x2="62.9" y2="122.92"/>
  <path d="M41.83,105v22h14q4-4,8-8V105" transform="translate(-0.93 -1.08)" style="fill: #fdb913"/>
  <polyline points="62.9 117.92 54.9 117.92 54.9 125.92" style="opacity: 0.07"/>
  <line x1="85.9" y1="159.92" x2="85.9" y2="159.92"/>
  <path d="M66.83,147v22h14l8-8V147" transform="translate(-0.93 -1.08)" style="fill: #0089cf"/>
  <polyline points="87.9 159.93 79.9 159.93 79.9 167.93" style="opacity: 0.07"/>
  <path d="M63.83,69" transform="translate(-0.93 -1.08)"/>
  <line x1="65.9" y1="75.92" x2="65.9" y2="75.92"/>
  <path d="M44.83,58V80h14q4-4,8-8V58" transform="translate(-0.93 -1.08)" style="fill: #fdb913"/>
  <polyline points="65.9 70.92 57.9 70.92 57.9 78.92" style="opacity: 0.07"/>
  <line x1="99.9" y1="34.92" x2="99.9" y2="34.92"/>
  <path d="M80.83,22V44h14q4-4,8-8V22" transform="translate(-0.93 -1.08)" style="fill: #0089cf"/>
  <polyline points="101.9 34.92 93.9 34.92 93.9 42.92" style="opacity: 0.07"/>
  <line x1="120.9" y1="12.92" x2="120.9" y2="188.92" style="fill: #3d3a3a;stroke: #000;stroke-miterlimit: 10;stroke-width: 2px"/>
  <path d="M214.83-46" transform="translate(-0.93 -1.08)"/>
</svg>
