<svg xmlns="http://www.w3.org/2000/svg" width="367.46" height="283.17" viewBox="0 0 367.46 283.17">
  <title>assumptions-mapping</title>
  <path d="M226.18,67.92H200.69c.07-3.89.08-7.92,0-12.08q-.13-6.47-.49-12.5h25.08c.43,3.89.74,8.07.9,12.5C226.33,60.11,226.31,64.14,226.18,67.92Z" transform="translate(-1.18 -2.61)" style="opacity: 0.08"/>
  <rect x="174.47" y="19.33" width="2.9" height="245.68" style="fill: #222;stroke: #222;stroke-miterlimit: 10"/>
  <rect x="174.19" y="20.49" width="2.9" height="245.68" transform="translate(317.8 -34.92) rotate(90)" style="fill: #222;stroke: #222;stroke-miterlimit: 10"/>
  <g>
    <path d="M144.71,3.49a.88.88,0,0,1-1.76,0,.87.87,0,0,1,.89-.88A.84.84,0,0,1,144.71,3.49Zm-1.58,10V5.68h1.42v7.8Z" transform="translate(-1.18 -2.61)"/>
    <path d="M146.9,7.79c0-.8,0-1.46-.07-2.11h1.24l.07,1.26h.05a2.67,2.67,0,0,1,2.44-1.43,2.31,2.31,0,0,1,2.21,1.56h0a3.28,3.28,0,0,1,.87-1,2.68,2.68,0,0,1,1.72-.54c1,0,2.56.67,2.56,3.38v4.59h-1.38V9.06c0-1.49-.55-2.39-1.69-2.39A1.83,1.83,0,0,0,153.27,8a2.52,2.52,0,0,0-.11.71v4.82h-1.39V8.81c0-1.24-.54-2.14-1.62-2.14a1.93,1.93,0,0,0-1.76,1.41,2,2,0,0,0-.11.69v4.71H146.9Z" transform="translate(-1.18 -2.61)"/>
    <path d="M160.33,8.23c0-1,0-1.81-.07-2.55h1.27L161.6,7h0a3.06,3.06,0,0,1,2.77-1.51c1.88,0,3.3,1.59,3.3,4,0,2.8-1.71,4.18-3.54,4.18a2.73,2.73,0,0,1-2.4-1.22h0v4.23h-1.4Zm1.4,2.07a3.34,3.34,0,0,0,.06.58,2.18,2.18,0,0,0,2.13,1.66c1.49,0,2.36-1.22,2.36-3,0-1.56-.82-2.9-2.32-2.9a2.28,2.28,0,0,0-2.14,1.76,2.2,2.2,0,0,0-.09.58Z" transform="translate(-1.18 -2.61)"/>
    <path d="M176.54,9.52a3.8,3.8,0,0,1-3.88,4.13,3.71,3.71,0,0,1-3.74-4,3.81,3.81,0,0,1,3.87-4.13A3.69,3.69,0,0,1,176.54,9.52Zm-6.19.08c0,1.7,1,3,2.37,3s2.37-1.27,2.37-3c0-1.32-.66-3-2.34-3S170.35,8.11,170.35,9.6Z" transform="translate(-1.18 -2.61)"/>
    <path d="M178.32,8.11c0-.91,0-1.7-.06-2.43h1.24l.05,1.53h.06a2.35,2.35,0,0,1,2.16-1.7,1.25,1.25,0,0,1,.4,0V6.89a2.21,2.21,0,0,0-.48,0,2,2,0,0,0-1.9,1.82,4.31,4.31,0,0,0-.07.66v4.16h-1.4Z" transform="translate(-1.18 -2.61)"/>
    <path d="M185.68,3.45V5.68h2V6.76h-2V11c0,1,.28,1.52,1.06,1.52a3,3,0,0,0,.82-.1l.07,1.06a3.3,3.3,0,0,1-1.26.2,2,2,0,0,1-1.53-.6,2.9,2.9,0,0,1-.54-2V6.76h-1.21V5.68h1.21V3.82Z" transform="translate(-1.18 -2.61)"/>
    <path d="M193.62,13.48l-.11-1h0a2.89,2.89,0,0,1-2.39,1.16,2.22,2.22,0,0,1-2.38-2.23c0-1.89,1.68-2.92,4.69-2.9V8.36a1.61,1.61,0,0,0-1.77-1.81,3.89,3.89,0,0,0-2,.58l-.32-.93a4.79,4.79,0,0,1,2.56-.69c2.38,0,3,1.62,3,3.18v2.92a10.76,10.76,0,0,0,.13,1.87Zm-.21-4c-1.55,0-3.3.24-3.3,1.75a1.26,1.26,0,0,0,1.34,1.36,2,2,0,0,0,1.88-1.31,1.38,1.38,0,0,0,.08-.45Z" transform="translate(-1.18 -2.61)"/>
    <path d="M197.06,7.79c0-.8,0-1.46-.06-2.11h1.25L198.34,7h0a2.85,2.85,0,0,1,2.57-1.46c1.08,0,2.76.64,2.76,3.31v4.66h-1.42V9c0-1.25-.47-2.3-1.8-2.3a2,2,0,0,0-1.9,1.45,1.91,1.91,0,0,0-.1.66v4.69h-1.42Z" transform="translate(-1.18 -2.61)"/>
    <path d="M207.64,3.45V5.68h2V6.76h-2V11c0,1,.28,1.52,1.06,1.52a3,3,0,0,0,.82-.1l.07,1.06a3.3,3.3,0,0,1-1.26.2,2,2,0,0,1-1.53-.6,2.9,2.9,0,0,1-.54-2V6.76h-1.21V5.68h1.21V3.82Z" transform="translate(-1.18 -2.61)"/>
  </g>
  <g>
    <path d="M142.28,280.46c0,.81,0,1.52.07,2.13h-1.26l-.08-1.27h0a2.94,2.94,0,0,1-2.57,1.44c-1.23,0-2.69-.67-2.69-3.41V274.8h1.41v4.31c0,1.48.45,2.48,1.74,2.48a2.05,2.05,0,0,0,1.87-1.29,2.09,2.09,0,0,0,.13-.72V274.8h1.41Z" transform="translate(-1.18 -2.61)"/>
    <path d="M144.64,276.9c0-.8,0-1.46-.07-2.1h1.26l.08,1.28h0a2.87,2.87,0,0,1,2.58-1.46c1.07,0,2.75.64,2.75,3.31v4.66h-1.42V278.1c0-1.26-.47-2.31-1.8-2.31a2,2,0,0,0-1.9,1.45,1.91,1.91,0,0,0-.1.66v4.69h-1.41Z" transform="translate(-1.18 -2.61)"/>
    <path d="M155.15,272.61a.84.84,0,0,1-.9.87.85.85,0,0,1-.86-.87.87.87,0,0,1,.89-.89A.85.85,0,0,1,155.15,272.61Zm-1.58,10V274.8H155v7.79Z" transform="translate(-1.18 -2.61)"/>
    <path d="M157.34,276.9c0-.8,0-1.46-.07-2.1h1.24l.07,1.25h0a2.68,2.68,0,0,1,2.44-1.43,2.3,2.3,0,0,1,2.21,1.56h0a3.23,3.23,0,0,1,.87-1,2.63,2.63,0,0,1,1.72-.55c1,0,2.56.67,2.56,3.38v4.59h-1.38v-4.41c0-1.5-.55-2.4-1.69-2.4a1.84,1.84,0,0,0-1.68,1.29,2.45,2.45,0,0,0-.11.7v4.82h-1.38v-4.67c0-1.24-.55-2.14-1.63-2.14a1.93,1.93,0,0,0-1.75,1.41,2,2,0,0,0-.12.7v4.7h-1.38Z" transform="translate(-1.18 -2.61)"/>
    <path d="M170.77,277.34c0-1,0-1.8-.07-2.54H172l.07,1.33h0a3.06,3.06,0,0,1,2.77-1.51c1.88,0,3.3,1.59,3.3,4,0,2.8-1.71,4.18-3.54,4.18a2.74,2.74,0,0,1-2.4-1.22h0v4.23h-1.4Zm1.4,2.08a3.56,3.56,0,0,0,.06.58,2.18,2.18,0,0,0,2.13,1.65c1.49,0,2.36-1.22,2.36-3,0-1.56-.82-2.89-2.32-2.89a2.41,2.41,0,0,0-2.23,2.33Z" transform="translate(-1.18 -2.61)"/>
    <path d="M187,278.63a3.8,3.8,0,0,1-3.88,4.13,3.7,3.7,0,0,1-3.74-4,3.81,3.81,0,0,1,3.87-4.14A3.69,3.69,0,0,1,187,278.63Zm-6.18.08c0,1.7,1,3,2.36,3s2.37-1.27,2.37-3c0-1.31-.66-3-2.34-3S180.8,277.23,180.8,278.71Z" transform="translate(-1.18 -2.61)"/>
    <path d="M188.77,277.23c0-.92,0-1.71-.07-2.43h1.24l.05,1.53h.06a2.35,2.35,0,0,1,2.16-1.71,1.25,1.25,0,0,1,.4.05V276a2.21,2.21,0,0,0-.48-.05,2,2,0,0,0-1.9,1.82,4.37,4.37,0,0,0-.06.66v4.16h-1.4Z" transform="translate(-1.18 -2.61)"/>
    <path d="M196.12,272.56v2.24h2v1.07h-2v4.21c0,1,.28,1.51,1.06,1.51a3.09,3.09,0,0,0,.83-.1l.06,1.06a3.3,3.3,0,0,1-1.26.2,1.92,1.92,0,0,1-1.52-.6,2.85,2.85,0,0,1-.55-2v-4.25h-1.21V274.8h1.21v-1.87Z" transform="translate(-1.18 -2.61)"/>
    <path d="M204.06,282.59l-.11-1h0a2.88,2.88,0,0,1-2.38,1.16,2.22,2.22,0,0,1-2.39-2.23c0-1.89,1.68-2.92,4.69-2.9v-.16a1.6,1.6,0,0,0-1.77-1.8,3.91,3.91,0,0,0-2,.57l-.32-.93a4.79,4.79,0,0,1,2.56-.69c2.38,0,3,1.62,3,3.19v2.91a10.62,10.62,0,0,0,.13,1.87Zm-.21-4c-1.55,0-3.3.24-3.3,1.76a1.26,1.26,0,0,0,1.34,1.35,2,2,0,0,0,1.88-1.31,1.38,1.38,0,0,0,.08-.45Z" transform="translate(-1.18 -2.61)"/>
    <path d="M207.51,276.9c0-.8,0-1.46-.07-2.1h1.26l.08,1.28h0a2.87,2.87,0,0,1,2.57-1.46c1.08,0,2.76.64,2.76,3.31v4.66h-1.42V278.1c0-1.26-.47-2.31-1.8-2.31a2,2,0,0,0-1.9,1.45,1.91,1.91,0,0,0-.1.66v4.69h-1.41Z" transform="translate(-1.18 -2.61)"/>
    <path d="M218.08,272.56v2.24h2v1.07h-2v4.21c0,1,.28,1.51,1.06,1.51a3.09,3.09,0,0,0,.83-.1l.06,1.06a3.3,3.3,0,0,1-1.26.2,1.92,1.92,0,0,1-1.52-.6,2.85,2.85,0,0,1-.55-2v-4.25h-1.21V274.8h1.21v-1.87Z" transform="translate(-1.18 -2.61)"/>
  </g>
  <g>
    <path d="M313.38,145.34c0,.81,0,1.52.07,2.13h-1.26l-.08-1.27h0a3,3,0,0,1-2.58,1.45c-1.22,0-2.68-.68-2.68-3.42v-4.55h1.41V144c0,1.48.45,2.48,1.74,2.48a2.05,2.05,0,0,0,1.87-1.29,2.09,2.09,0,0,0,.13-.72v-4.78h1.41Z" transform="translate(-1.18 -2.61)"/>
    <path d="M315.74,141.79c0-.81,0-1.47-.07-2.11h1.26L317,141h0a2.87,2.87,0,0,1,2.58-1.46c1.07,0,2.75.64,2.75,3.32v4.65H321V143c0-1.26-.47-2.31-1.8-2.31a2,2,0,0,0-1.9,1.45,1.91,1.91,0,0,0-.1.66v4.69h-1.41Z" transform="translate(-1.18 -2.61)"/>
    <path d="M326.07,143.25h0c.2-.27.47-.61.7-.89l2.28-2.68h1.71l-3,3.2,3.43,4.59h-1.73l-2.68-3.74-.73.81v2.93h-1.4V136h1.4Z" transform="translate(-1.18 -2.61)"/>
    <path d="M332.5,141.79c0-.81,0-1.47-.07-2.11h1.26l.08,1.28h0a2.87,2.87,0,0,1,2.58-1.46c1.07,0,2.75.64,2.75,3.32v4.65h-1.42V143c0-1.26-.47-2.31-1.8-2.31a2,2,0,0,0-1.9,1.45,1.91,1.91,0,0,0-.1.66v4.69H332.5Z" transform="translate(-1.18 -2.61)"/>
    <path d="M348.48,143.51a3.81,3.81,0,0,1-3.88,4.14,3.7,3.7,0,0,1-3.73-4,3.8,3.8,0,0,1,3.86-4.14A3.69,3.69,0,0,1,348.48,143.51Zm-6.18.08c0,1.7,1,3,2.37,3s2.36-1.27,2.36-3c0-1.32-.66-3-2.33-3S342.3,142.11,342.3,143.59Z" transform="translate(-1.18 -2.61)"/>
    <path d="M350.72,139.68l1,4c.23.87.43,1.67.58,2.48h.05c.18-.79.43-1.63.69-2.47l1.27-4h1.19l1.21,3.89c.29.94.52,1.76.69,2.55h.05a23.33,23.33,0,0,1,.6-2.53l1.11-3.91h1.4l-2.51,7.79h-1.29l-1.19-3.72a23.47,23.47,0,0,1-.69-2.56h0a23.65,23.65,0,0,1-.7,2.58l-1.26,3.7h-1.29l-2.35-7.79Z" transform="translate(-1.18 -2.61)"/>
    <path d="M362,141.79c0-.81,0-1.47-.07-2.11h1.26l.08,1.28h0a2.87,2.87,0,0,1,2.58-1.46c1.07,0,2.75.64,2.75,3.32v4.65h-1.42V143c0-1.26-.47-2.31-1.8-2.31a2,2,0,0,0-1.9,1.45,2.18,2.18,0,0,0-.1.66v4.69H362Z" transform="translate(-1.18 -2.61)"/>
  </g>
  <g>
    <path d="M2.58,143.25h0c.19-.27.46-.61.69-.89l2.29-2.68h1.7l-3,3.2,3.43,4.59H6L3.3,143.73l-.72.81v2.93H1.18V136h1.4Z" transform="translate(-1.18 -2.61)"/>
    <path d="M9,141.79c0-.81,0-1.47-.06-2.11h1.25l.08,1.28h0a2.87,2.87,0,0,1,2.58-1.46c1.08,0,2.75.64,2.75,3.32v4.65H14.22V143c0-1.26-.47-2.31-1.81-2.31a2,2,0,0,0-1.9,1.45,2.19,2.19,0,0,0-.09.66v4.69H9Z" transform="translate(-1.18 -2.61)"/>
    <path d="M25,143.51a3.81,3.81,0,0,1-3.88,4.14,3.71,3.71,0,0,1-3.74-4,3.81,3.81,0,0,1,3.86-4.14A3.69,3.69,0,0,1,25,143.51Zm-6.19.08c0,1.7,1,3,2.37,3s2.37-1.27,2.37-3c0-1.32-.66-3-2.34-3S18.8,142.11,18.8,143.59Z" transform="translate(-1.18 -2.61)"/>
    <path d="M27.22,139.68l1,4c.23.87.44,1.67.58,2.48h.05c.18-.79.44-1.63.69-2.47l1.28-4H32l1.21,3.89c.28.94.51,1.76.69,2.55H34a21,21,0,0,1,.59-2.53l1.11-3.91h1.4l-2.51,7.79H33.29l-1.19-3.72a26,26,0,0,1-.69-2.56h0a26.13,26.13,0,0,1-.71,2.58l-1.26,3.7H28.13l-2.35-7.79Z" transform="translate(-1.18 -2.61)"/>
    <path d="M38.51,141.79c0-.81,0-1.47-.06-2.11H39.7l.08,1.28h0a2.87,2.87,0,0,1,2.58-1.46c1.08,0,2.75.64,2.75,3.32v4.65H43.73V143c0-1.26-.47-2.31-1.81-2.31a2,2,0,0,0-1.9,1.45,2.19,2.19,0,0,0-.09.66v4.69H38.51Z" transform="translate(-1.18 -2.61)"/>
  </g>
  <path d="M226.18,67.26H200.69c.07-3.89.08-7.91,0-12.07s-.25-8.48-.49-12.5h25.08c.43,3.89.74,8.07.9,12.5C226.33,59.45,226.31,63.49,226.18,67.26Z" transform="translate(-1.18 -2.61)" style="fill: #ffc44a"/>
  <path d="M255.7,94.75H230.2q.12-5.84,0-12.07-.12-6.47-.49-12.51H254.8c.42,3.9.74,8.07.9,12.51C255.85,86.94,255.83,91,255.7,94.75Z" transform="translate(-1.18 -2.61)" style="opacity: 0.08"/>
  <path d="M255.7,94.1H230.2q.12-5.84,0-12.08-.12-6.47-.49-12.5H254.8c.42,3.89.74,8.07.9,12.5C255.85,86.28,255.83,90.32,255.7,94.1Z" transform="translate(-1.18 -2.61)" style="fill: #a3ff55"/>
  <path d="M270.45,46.45H245q.12-5.84,0-12.07-.12-6.47-.49-12.5h25.09c.42,3.89.74,8.06.89,12.5C270.6,38.64,270.59,42.67,270.45,46.45Z" transform="translate(-1.18 -2.61)" style="opacity: 0.08"/>
  <path d="M270.45,45.8H245q.12-5.84,0-12.08-.12-6.46-.49-12.5h25.09c.42,3.89.74,8.07.89,12.5C270.6,38,270.59,42,270.45,45.8Z" transform="translate(-1.18 -2.61)" style="fill: #ffc44a"/>
  <path d="M273.7,31" transform="translate(-1.18 -2.61)" style="fill: #ffc44a"/>
  <path d="M218.61,127.15H193.12q.1-5.84,0-12.08-.13-6.46-.49-12.5h25.08c.42,3.89.74,8.07.9,12.5C218.76,119.34,218.74,123.37,218.61,127.15Z" transform="translate(-1.18 -2.61)" style="opacity: 0.08"/>
  <path d="M218.61,126.49H193.12q.1-5.83,0-12.07-.13-6.47-.49-12.5h25.08c.42,3.89.74,8.06.9,12.5C218.76,118.68,218.74,122.72,218.61,126.49Z" transform="translate(-1.18 -2.61)" style="fill: #4ad8ff"/>
  <path d="M163.53,229.74H138q.12-5.84,0-12.08-.12-6.47-.49-12.5h25.09c.42,3.89.74,8.07.89,12.5C163.68,221.93,163.67,226,163.53,229.74Z" transform="translate(-1.18 -2.61)" style="fill: #4ad8ff"/>
  <path d="M82.29,186.76H56.8c.07-3.89.08-7.91,0-12.07q-.13-6.47-.49-12.5H81.39c.43,3.89.74,8.07.9,12.5C82.44,179,82.42,183,82.29,186.76Z" transform="translate(-1.18 -2.61)" style="opacity: 0.08"/>
  <path d="M82.29,186.11H56.8c.07-3.89.08-7.92,0-12.08q-.13-6.47-.49-12.5H81.39c.43,3.89.74,8.07.9,12.5C82.44,178.3,82.42,182.33,82.29,186.11Z" transform="translate(-1.18 -2.61)" style="fill: #ffc44a"/>
  <path d="M125.22,213.6H99.73q.12-5.83,0-12.08-.12-6.47-.49-12.5h25.09c.42,3.89.74,8.07.89,12.5C125.37,205.79,125.35,209.82,125.22,213.6Z" transform="translate(-1.18 -2.61)" style="opacity: 0.08"/>
  <path d="M125.22,212.94H99.73q.12-5.83,0-12.07-.12-6.47-.49-12.5h25.09c.42,3.89.74,8.06.89,12.5C125.37,205.13,125.35,209.16,125.22,212.94Z" transform="translate(-1.18 -2.61)" style="fill: #a3ff55"/>
  <path d="M153.4,178.72H127.91c.07-3.9.08-7.92,0-12.08s-.26-8.48-.49-12.5H152.5c.42,3.89.74,8.07.9,12.5C153.55,170.9,153.53,174.94,153.4,178.72Z" transform="translate(-1.18 -2.61)" style="opacity: 0.08"/>
  <path d="M153.4,178.06H127.91c.07-3.89.08-7.92,0-12.08q-.14-6.47-.49-12.5H152.5c.42,3.89.74,8.07.9,12.5C153.55,170.25,153.53,174.28,153.4,178.06Z" transform="translate(-1.18 -2.61)" style="fill: #ffc44a"/>
  <path d="M170.06,163.3" transform="translate(-1.18 -2.61)" style="fill: #ffc44a"/>
  <path d="M235.57,182H210.08c.07-3.89.08-7.92,0-12.07q-.12-6.48-.49-12.51h25.09c.42,3.89.74,8.07.89,12.51C235.72,174.15,235.7,178.18,235.57,182Z" transform="translate(-1.18 -2.61)" style="opacity: 0.08"/>
  <path d="M235.57,181.3H210.08c.07-3.89.08-7.91,0-12.07q-.12-6.47-.49-12.5h25.09c.42,3.89.74,8.07.89,12.5C235.72,173.49,235.7,177.53,235.57,181.3Z" transform="translate(-1.18 -2.61)" style="fill: #a3ff55"/>
  <path d="M275.82,208.79H250.33c.07-3.89.08-7.92,0-12.07q-.12-6.47-.49-12.5h25.09c.42,3.89.73,8.06.89,12.5C276,201,276,205,275.82,208.79Z" transform="translate(-1.18 -2.61)" style="opacity: 0.08"/>
  <path d="M275.82,208.14H250.33c.07-3.89.08-7.92,0-12.08q-.12-6.47-.49-12.5h25.09c.42,3.89.73,8.07.89,12.5C276,200.33,276,204.36,275.82,208.14Z" transform="translate(-1.18 -2.61)" style="fill: #a3ff55"/>
  <path d="M236,235.1H210.49q.12-5.83,0-12.07-.12-6.47-.49-12.5h25.09c.42,3.89.74,8.07.89,12.5C236.13,227.29,236.12,231.33,236,235.1Z" transform="translate(-1.18 -2.61)" style="fill: #4ad8ff"/>
  <path d="M168.9,100.94H143.41c.07-3.89.08-7.92,0-12.08q-.12-6.47-.49-12.5H168c.42,3.89.74,8.07.89,12.5C169.05,93.13,169,97.16,168.9,100.94Z" transform="translate(-1.18 -2.61)" style="fill: #4ad8ff"/>
  <path d="M101.4,61.21H75.91q.12-5.84,0-12.07-.12-6.48-.49-12.51h25.09c.42,3.9.74,8.07.89,12.51C101.55,53.4,101.54,57.43,101.4,61.21Z" transform="translate(-1.18 -2.61)" style="opacity: 0.08"/>
  <path d="M101.4,60.56H75.91q.12-5.85,0-12.08Q75.79,42,75.42,36h25.09c.42,3.89.74,8.07.89,12.5C101.55,52.74,101.54,56.78,101.4,60.56Z" transform="translate(-1.18 -2.61)" style="fill: #ffc44a"/>
  <path d="M114.82,128.29H89.33c.07-3.89.08-7.91,0-12.07q-.12-6.47-.49-12.5h25.09c.42,3.89.74,8.07.89,12.5C115,120.48,115,124.52,114.82,128.29Z" transform="translate(-1.18 -2.61)" style="opacity: 0.08"/>
  <path d="M114.82,127.64H89.33c.07-3.89.08-7.92,0-12.08q-.12-6.47-.49-12.5h25.09c.42,3.89.74,8.07.89,12.5C115,119.83,115,123.86,114.82,127.64Z" transform="translate(-1.18 -2.61)" style="fill: #a3ff55"/>
  <path d="M151.46,60.69H126c.07-3.89.08-7.92,0-12.08s-.25-8.48-.49-12.5h25.08c.43,3.89.74,8.07.9,12.5C151.61,52.88,151.59,56.91,151.46,60.69Z" transform="translate(-1.18 -2.61)" style="fill: #4ad8ff"/>
</svg>
