<svg xmlns="http://www.w3.org/2000/svg" viewBox="0 0 98.52 157.77">
  <g>
    <path d="M49 6.55a42.75 42.75 0 0 1 34.4 68.51 56 56 0 0 0-10.68 33.2 3.29 3.29 0 0 1-3.27 3.31l-39.45.27a3.26 3.26 0 0 1-3.3-3.26 56 56 0 0 0-11.14-33.06A42.73 42.73 0 0 1 49 6.55zm0 9.87a3.11 3.11 0 0 0-3.26 3.31A3.17 3.17 0 0 0 49.09 23a26.24 26.24 0 0 1 26.47 26.1 3.29 3.29 0 1 0 6.57-.1A32.91 32.91 0 0 0 49 16.42zM48.92 0A49.26 49.26 0 0 0 9.48 78.35a49.46 49.46 0 0 1 10.63 30.28 9.85 9.85 0 0 0 9.89 9.78l39.43-.27a9.87 9.87 0 0 0 9.79-9.93 49.51 49.51 0 0 1 10.21-30.45A49.23 49.23 0 0 0 48.92 0zM30.09 125a3.29 3.29 0 1 0-.05 6.57h.09l39.43-.28a3.29 3.29 0 0 0 0-6.57h-.09zm.09 13.14a3.29 3.29 0 1 0-.05 6.57h.1l39.42-.28a3.29 3.29 0 0 0 0-6.57h-.09zm10 13.07a3.29 3.29 0 0 0-.05 6.57h.1l19.71-.13a3.29 3.29 0 0 0 0-6.58h-.1z"/>
  </g>
</svg>