<svg transform="rotate(-15 50 -35)" fill="#4C4848" id="Layer_1" data-name="Layer 1" xmlns="http://www.w3.org/2000/svg" viewBox="0 0 93.71 150"><title>bulb</title><path d="M74.75,6.23a40.65,40.65,0,0,1,32.71,65.13A53.23,53.23,0,0,0,97.3,102.92a3.13,3.13,0,0,1-3.1,3.15h0l-37.51.26a3.11,3.11,0,0,1-3.14-3.07v0A53.18,53.18,0,0,0,43,71.8,40.63,40.63,0,0,1,74.75,6.23Zm0,9.38a3,3,0,0,0-3.1,2.81v.34a3,3,0,0,0,2.92,3.11h.27A24.94,24.94,0,0,1,100,46.59v.09a3.13,3.13,0,0,0,6.26.24c0-.11,0-.22,0-.34A31.29,31.29,0,0,0,74.75,15.61ZM74.68,0a46.84,46.84,0,0,0-37.5,74.49,47,47,0,0,1,10.11,28.78,9.37,9.37,0,0,0,9.4,9.3l37.49-.26a9.37,9.37,0,0,0,9.3-9.44,47.06,47.06,0,0,1,9.71-28.94A46.81,46.81,0,0,0,74.68,0ZM56.78,118.84a3.13,3.13,0,1,0-.39,6.24,1.93,1.93,0,0,0,.34,0h.08l37.49-.26a3.13,3.13,0,0,0,0-6.25h-.09Zm.08,12.49a3.13,3.13,0,0,0-.39,6.24,1.93,1.93,0,0,0,.34,0h.1l37.48-.26a3.13,3.13,0,0,0,0-6.25H94.3Zm9.51,12.42a3.13,3.13,0,0,0-.05,6.25h.1l18.73-.12a3.13,3.13,0,0,0,0-6.26h-.09Z" transform="translate(-28.14)"/></svg>