<svg xmlns="http://www.w3.org/2000/svg" width="65mm" height="63.37mm" viewBox="0 0 184.24 179.62">
  <title>cycle7-logo-alt</title>
  <polygon points="92.12 4.44 21.72 38.34 4.33 114.53 53.05 175.62 131.19 175.62 179.91 114.53 162.52 38.34 92.12 4.44" style="fill: #222"/>
  <path d="M164.39,136.48a105.07,105.07,0,0,1-25.14-1.81c-12.91-2.52-24.44-4.79-32.83-14.63a35.47,35.47,0,0,1-8.09-18.68c-.24-2.16-1.84-19,10.23-28.28a25,25,0,0,1,13.65-5.19c9.62-.56,16.46,5,18.23,6.49,10.7,9.32,9.37,24.05,11.43,23.91s7.14-16.7-.66-29.57c-4.59-7.58-14.32-14.44-26.16-16.41A44,44,0,0,0,97.1,56.66c-34.21,18-35.84,79.42-35.9,83.4.84,1.23,2.1,3.11,3.61,5.42,3,4.54,7.94,12,7.94,12,61.92,1.33,73.3,0,78.08-3.06a14.52,14.52,0,0,0,2.27-1.88h0S156.86,147.15,164.39,136.48Z" style="fill: #b3b3b3;stroke: #b3b3b3;stroke-miterlimit: 10;stroke-width: 2px"/>
  <path d="M155.92,138.67a210.37,210.37,0,0,1-22.87-1.5c-8.7-1.06-13.41-1.68-18.68-3.35-4.69-1.49-19.78-6.29-26.91-19.66-7.73-14.47-5.4-37.83,10.46-48.1C108,59.53,121,60,130.31,64.34l0,0c12.75,6.08,18.08,19.13,18.08,19.13,3.55,8.38,2.36,14.76,3.44,14.8,1.31.06,4.63-9.37,3.39-18.55-2.53-18.61-23.65-34.37-44.43-37.84-17-2.84-30.74,3.29-34.24,4.89C47.82,60,30.8,96.9,30.2,140.33c1.89,5.45,10.32,28.35,23.68,30.77,5.15.93,22.89,1,24.85.85.1,0,.7,0,1.51,0,1.52,0,2.52.17,14,.12,8.41,0,14.78-.26,24.84-.42s9.63-.08,10-.14C136.31,170.4,146,164,155.92,138.67Z" style="fill: #fff;stroke: #fff;stroke-miterlimit: 10;stroke-width: 1.5px"/>
  <path d="M60.76,114" style="fill: #00b49d;stroke: #00b49d;stroke-miterlimit: 10;stroke-width: 4px"/>
  <path d="M121.51,54.62" style="fill: #ccc;stroke: #ccc;stroke-miterlimit: 10;stroke-width: 2px"/>
  <path d="M161.85,93.11" style="fill: #fff;stroke: #fff;stroke-miterlimit: 10;stroke-width: 1.5px"/>
  <path d="M121.39,73.09" style="fill: #b3b3b3;stroke: #b3b3b3;stroke-miterlimit: 10;stroke-width: 2px"/>
  <polygon points="92.12 4.44 21.72 38.34 4.33 114.53 53.05 175.62 131.19 175.62 179.91 114.53 162.52 38.34 92.12 4.44" style="fill: none;stroke: #222;stroke-miterlimit: 10;stroke-width: 8px"/>
</svg>
