<svg xmlns="http://www.w3.org/2000/svg" width="84.11mm" height="22.42mm" viewBox="0 0 238.41 63.55">
  <title>cycle7-logo-text</title>
  <g>
    <path d="M.32,32.18c0-11.48,8.34-19.32,18.81-19.32a16.9,16.9,0,0,1,13.72,6.61l-2.69,1.74a13.63,13.63,0,0,0-11-5.44c-8.68,0-15.45,6.67-15.45,16.41s6.77,16.41,15.45,16.41a13.62,13.62,0,0,0,11-5.43l2.69,1.68A16.81,16.81,0,0,1,19.13,51.5C8.66,51.5.32,43.66.32,32.18Z" transform="translate(-0.32 -0.24)" style="fill: #222"/>
    <path d="M53.4,34.87,38.56,13.48h3.87L55,31.85l12.6-18.37h3.86L56.65,34.87v16H53.4Z" transform="translate(-0.32 -0.24)" style="fill: #222"/>
    <path d="M77.09,32.18c0-11.48,8.35-19.32,18.82-19.32a16.9,16.9,0,0,1,13.72,6.61l-2.69,1.74a13.63,13.63,0,0,0-11-5.44c-8.68,0-15.46,6.67-15.46,16.41s6.78,16.41,15.46,16.41a13.62,13.62,0,0,0,11-5.43l2.69,1.68A16.83,16.83,0,0,1,95.91,51.5C85.44,51.5,77.09,43.66,77.09,32.18Z" transform="translate(-0.32 -0.24)" style="fill: #222"/>
    <path d="M119.88,13.48h3.19V47.92h18.09v2.91H119.88Z" transform="translate(-0.32 -0.24)" style="fill: #222"/>
    <path d="M151.85,13.48h23.69v2.91H155V30.22h20.11v2.91H155V47.92h20.5v2.91H151.85Z" transform="translate(-0.32 -0.24)" style="fill: #222"/>
  </g>
  <path d="M235.74,2.24,211.29,61.79H196L214.9,15.6H193.25l2.49-13.36Z" transform="translate(-0.32 -0.24)" style="fill: none;stroke: #00b49d;stroke-miterlimit: 10;stroke-width: 4px"/>
</svg>
