<svg xmlns="http://www.w3.org/2000/svg" width="107.64mm" height="103.8mm" viewBox="0 0 305.11 294.23">
  <title>desirable-feasible-viable</title>
  <circle cx="157.21" cy="91.8" r="90.12" style="fill: #83ff6a;stroke: #008a32;stroke-miterlimit: 10;stroke-width: 3.3639410734176636px;opacity: 0.5"/>
  <circle cx="91.8" cy="202.42" r="90.12" style="fill: #ff7474;stroke: #6a0200;stroke-miterlimit: 10;stroke-width: 3.3639410734176636px;opacity: 0.5"/>
  <circle cx="213.31" cy="202.42" r="90.12" style="fill: #5fd8ff;stroke: #004b74;stroke-miterlimit: 10;stroke-width: 3.3639410734176636px;opacity: 0.5"/>
  <g style="opacity: 0.85">
    <path d="M107.88,47.06a26.78,26.78,0,0,1,4.07-.31c2.75,0,4.71.64,6,1.85a6.84,6.84,0,0,1,2.09,5.33,7.81,7.81,0,0,1-2.14,5.76c-1.39,1.39-3.67,2.13-6.56,2.13a31,31,0,0,1-3.47-.17Zm1.91,13.11a11.94,11.94,0,0,0,1.94.11C115.82,60.28,118,58,118,54c0-3.5-2-5.72-6-5.72a10.94,10.94,0,0,0-2.25.2Z" style="fill: #222"/>
    <path d="M130.21,54.74h-5.77v5.35h6.43v1.6h-8.34V46.86h8v1.61h-6.1v4.69h5.77Z" style="fill: #222"/>
    <path d="M133.09,59.36a6.76,6.76,0,0,0,3.43,1c2,0,3.1-1,3.1-2.53s-.79-2.18-2.79-2.95c-2.42-.86-3.92-2.11-3.92-4.2,0-2.31,1.92-4,4.8-4a6.67,6.67,0,0,1,3.28.73l-.53,1.56a5.8,5.8,0,0,0-2.82-.71c-2,0-2.79,1.21-2.79,2.23,0,1.38.9,2.07,3,2.86,2.51,1,3.78,2.18,3.78,4.35s-1.69,4.27-5.19,4.27a7.73,7.73,0,0,1-3.78-.94Z" style="fill: #222"/>
    <path d="M146.11,46.86V61.69H144.2V46.86Z" style="fill: #222"/>
    <path d="M149.46,47.06a19.64,19.64,0,0,1,3.67-.31c2.05,0,3.37.38,4.29,1.21a3.69,3.69,0,0,1,1.17,2.82,3.88,3.88,0,0,1-2.8,3.78v.07c1.15.4,1.83,1.45,2.18,3a23.68,23.68,0,0,0,1.15,4.07h-2a17.91,17.91,0,0,1-1-3.54c-.44-2-1.24-2.82-3-2.88h-1.81v6.42h-1.91Zm1.91,6.76h2c2,0,3.34-1.13,3.34-2.82,0-1.92-1.38-2.75-3.41-2.77a7.88,7.88,0,0,0-1.89.17Z" style="fill: #222"/>
    <path d="M163.8,57l-1.54,4.66h-2l5-14.83h2.31l5.06,14.83h-2.05L169.06,57Zm4.86-1.5-1.45-4.27c-.33-1-.55-1.85-.77-2.7h0c-.22.88-.46,1.78-.75,2.68l-1.45,4.29Z" style="fill: #222"/>
    <path d="M174.87,47.06a18.07,18.07,0,0,1,3.49-.31,6.15,6.15,0,0,1,4.08,1.08,3.1,3.1,0,0,1,1.23,2.62,3.54,3.54,0,0,1-2.51,3.26v0a3.82,3.82,0,0,1,3.06,3.72,4,4,0,0,1-1.26,3c-1,.94-2.7,1.38-5.12,1.38a22.17,22.17,0,0,1-3-.17Zm1.91,6.07h1.74c2,0,3.21-1.05,3.21-2.48,0-1.74-1.32-2.42-3.25-2.42a8,8,0,0,0-1.7.13Zm0,7.11a9.68,9.68,0,0,0,1.61.09c2,0,3.8-.73,3.8-2.88s-1.74-2.86-3.83-2.86h-1.58Z" style="fill: #222"/>
    <path d="M186.79,46.86h1.91V60.09H195v1.6h-8.25Z" style="fill: #222"/>
    <path d="M204.85,54.74h-5.76v5.35h6.42v1.6h-8.34V46.86h8v1.61h-6.09v4.69h5.76Z" style="fill: #222"/>
  </g>
  <g style="opacity: 0.85">
    <path d="M23.76,193.82h8v1.6H25.68v4.93h5.61v1.59H25.68v6.71H23.76Z" style="fill: #222"/>
    <path d="M42.15,201.69H36.39V207h6.42v1.61H34.48V193.82h8v1.6H36.39v4.69h5.76Z" style="fill: #222"/>
    <path d="M47.7,204l-1.54,4.67h-2l5-14.83h2.31l5.06,14.83H54.54L53,204Zm4.86-1.49-1.45-4.27c-.33-1-.55-1.85-.77-2.71h-.05c-.22.88-.46,1.78-.74,2.68l-1.46,4.3Z" style="fill: #222"/>
    <path d="M58.5,206.31a6.76,6.76,0,0,0,3.43,1c2,0,3.1-1,3.1-2.53s-.79-2.18-2.79-2.95c-2.42-.85-3.92-2.11-3.92-4.2,0-2.31,1.92-4,4.8-4a6.78,6.78,0,0,1,3.28.73l-.53,1.56a5.94,5.94,0,0,0-2.82-.7c-2,0-2.79,1.21-2.79,2.22,0,1.39.9,2.07,3,2.86,2.51,1,3.78,2.18,3.78,4.36s-1.69,4.27-5.19,4.27a7.62,7.62,0,0,1-3.78-1Z" style="fill: #222"/>
    <path d="M71.52,193.82v14.83H69.61V193.82Z" style="fill: #222"/>
    <path d="M74.87,194a19.06,19.06,0,0,1,3.5-.3,6.19,6.19,0,0,1,4.07,1.07,3.13,3.13,0,0,1,1.23,2.62,3.53,3.53,0,0,1-2.51,3.26v0a3.82,3.82,0,0,1,3.06,3.72,4,4,0,0,1-1.26,3c-1,1-2.7,1.39-5.12,1.39a21.91,21.91,0,0,1-3-.18Zm1.91,6.08h1.74c2,0,3.21-1.06,3.21-2.49,0-1.74-1.32-2.42-3.25-2.42a8.83,8.83,0,0,0-1.7.13Zm0,7.1a9.83,9.83,0,0,0,1.61.09c2,0,3.8-.72,3.8-2.88s-1.73-2.86-3.82-2.86H76.78Z" style="fill: #222"/>
    <path d="M86.79,193.82h1.92V207H95v1.61H86.79Z" style="fill: #222"/>
    <path d="M104.85,201.69H99.09V207h6.42v1.61H97.17V193.82h8v1.6H99.09v4.69h5.76Z" style="fill: #222"/>
  </g>
  <g style="opacity: 0.85">
    <path d="M214.55,208.65l-4.84-14.83h2.07l2.31,7.3c.64,2,1.19,3.81,1.58,5.55h.05c.42-1.72,1-3.59,1.69-5.53l2.51-7.32H222l-5.31,14.83Z" style="fill: #222"/>
    <path d="M225.49,193.82v14.83h-1.92V193.82Z" style="fill: #222"/>
    <path d="M231.23,204l-1.54,4.67h-2l5-14.83h2.31l5.06,14.83h-2.05L236.49,204Zm4.86-1.5-1.45-4.26c-.33-1-.55-1.85-.77-2.71h-.05c-.22.88-.46,1.78-.74,2.68l-1.46,4.29Z" style="fill: #222"/>
    <path d="M242.29,194a19.23,19.23,0,0,1,3.5-.3,6.16,6.16,0,0,1,4.07,1.07,3.14,3.14,0,0,1,1.24,2.62,3.53,3.53,0,0,1-2.51,3.26v0a3.82,3.82,0,0,1,3.06,3.72,4,4,0,0,1-1.26,3c-1,1-2.7,1.39-5.13,1.39a21.91,21.91,0,0,1-3-.18Zm1.92,6.08H246c2,0,3.21-1.06,3.21-2.49,0-1.74-1.32-2.42-3.26-2.42a8.7,8.7,0,0,0-1.69.13Zm0,7.1a9.62,9.62,0,0,0,1.6.09c2,0,3.81-.72,3.81-2.88s-1.74-2.86-3.83-2.86h-1.58Z" style="fill: #222"/>
    <path d="M254.22,193.82h1.91V207h6.34v1.61h-8.25Z" style="fill: #222"/>
    <path d="M272.28,201.69h-5.76V207h6.42v1.61H264.6V193.82h8v1.6h-6.09v4.69h5.76Z" style="fill: #222"/>
  </g>
  <g style="opacity: 0.6">
    <path d="M145.22,157a8.24,8.24,0,0,0-5.49,2.56,8.75,8.75,0,0,0-1.61,2.17,4.11,4.11,0,0,1,4.91-.43A21.81,21.81,0,0,1,145.22,157Zm9.79,9.77a23.52,23.52,0,0,1-4.3,2.21,4.1,4.1,0,0,1-.43,4.9,8.47,8.47,0,0,0,2.17-1.6A8.19,8.19,0,0,0,155,166.77Zm6.15-15.94c-.41,0-.81-.05-1.21-.05-8.6,0-13.5,6.56-15.28,11.84l4.73,4.73c5.42-1.95,11.81-6.66,11.81-15.18C161.21,151.74,161.2,151.29,161.16,150.83Zm-9.89,9.91a1,1,0,1,1,1.42,0A1,1,0,0,1,151.27,160.74Zm2.83-2.83a2,2,0,1,1,2.83,0A2,2,0,0,1,154.1,157.91Zm-8,8.62,1,1a7.86,7.86,0,0,0-2.28,3.63l-1.39-.34A9.13,9.13,0,0,1,146.08,166.53Zm-1.63-1.63,1,1a9.26,9.26,0,0,1-4.31,2.67l-.34-1.39A7.91,7.91,0,0,0,144.45,164.9Zm2.74,6.45a2.83,2.83,0,0,1-2.48,3.42,2.78,2.78,0,0,1-2.35-.88,3.32,3.32,0,0,1-3.87-1.17,3.35,3.35,0,0,1-.38-3.08,2.75,2.75,0,0,1-.88-2.35c.15-1.53,1.36-2.7,3.48-2.48l.21,1.21a2.83,2.83,0,0,0-1.8.53,1.61,1.61,0,0,0,.85,2.63,2,2,0,1,0,2.85,2.85,1.61,1.61,0,0,0,2.63.85,2.81,2.81,0,0,0,.53-1.78Z"/>
  </g>
  <g style="opacity: 0.6">
    <path d="M239.55,228.32a10,10,0,1,1-10,10A10,10,0,0,1,239.55,228.32Zm0-2a12,12,0,1,0,12,12A12,12,0,0,0,239.55,226.32Zm4,14.08c0-2.14-2.23-2.74-3.94-3.54-1-.54-.91-1.83.58-1.92a6.35,6.35,0,0,1,2.44.47l.37-1.65a9.12,9.12,0,0,0-2.45-.42v-1h-1v1.07c-1.94.26-3,1.48-3,2.85,0,2.44,2.85,2.81,3.78,3.24,1.27.57,1,1.75-.12,2A6,6,0,0,1,237,241l-.46,1.65a7,7,0,0,0,3,.72v1h1v-1C242.21,243,243.56,242.12,243.55,240.4Z"/>
  </g>
  <g style="opacity: 0.6">
    <path d="M59.38,228.58l3.77,3.77c.4,1.89-2.33,4.66-4.25,4.24l-3.77-3.77a6.46,6.46,0,0,0-.25,1.8A6.19,6.19,0,0,0,56.71,239a6.25,6.25,0,0,0,4.93,1.82,3.21,3.21,0,0,1,2.51.93l7.62,7.62a3,3,0,1,0,4.2-4.2l-7.63-7.61a3.22,3.22,0,0,1-.93-2.52,6.26,6.26,0,0,0-6.24-6.76A6.35,6.35,0,0,0,59.38,228.58Zm15.45,18.69a1,1,0,0,1-2,0,1,1,0,0,1,2,0Z"/>
  </g>
  <g style="opacity: 0.6">
    <path d="M152.32,84.24c-2-5.4-12-4.6-12,3.57,0,4.07,3.06,9.48,12,15,8.94-5.51,12-10.92,12-15C164.32,79.69,154.32,78.81,152.32,84.24Z"/>
  </g>
</svg>
