<svg xmlns="http://www.w3.org/2000/svg" xmlns:xlink="http://www.w3.org/1999/xlink" width="279.9mm" height="211.49mm" viewBox="0 0 793.41 599.49">
  <defs>
    <linearGradient id="a" x1="254.47" y1="423.65" x2="254.47" y2="526.31" gradientTransform="matrix(1, 0, 0, -1, -203.29, 692.99)" gradientUnits="userSpaceOnUse">
      <stop offset="0" stop-color="gray" stop-opacity="0.25"/>
      <stop offset="0.54" stop-color="gray" stop-opacity="0.12"/>
      <stop offset="1" stop-color="gray" stop-opacity="0.1"/>
    </linearGradient>
    <linearGradient id="b" x1="24.82" y1="590.33" x2="24.82" y2="692.99" gradientTransform="translate(76.71 692.99) rotate(180)" xlink:href="#a"/>
    <linearGradient id="c" x1="254.47" y1="93.51" x2="254.47" y2="196.17" xlink:href="#a"/>
    <linearGradient id="d" x1="254.47" y1="259.42" x2="254.47" y2="362.08" xlink:href="#a"/>
    <linearGradient id="e" x1="499.41" y1="694.82" x2="499.41" y2="726.51" gradientTransform="matrix(1, 0, 0, -1, 0, 761.99)" xlink:href="#a"/>
    <linearGradient id="f" x1="499.41" y1="523.28" x2="499.41" y2="554.97" gradientTransform="matrix(1, 0, 0, -1, 0, 761.99)" xlink:href="#a"/>
    <linearGradient id="g" x1="499.41" y1="363.91" x2="499.41" y2="395.6" gradientTransform="matrix(1, 0, 0, -1, 0, 761.99)" xlink:href="#a"/>
    <linearGradient id="h" x1="499.41" y1="198.17" x2="499.41" y2="229.86" gradientTransform="matrix(1, 0, 0, -1, 0, 761.99)" xlink:href="#a"/>
  </defs>
  <title>measure-short</title>
  <g style="opacity: 0.5">
    <path d="M102.36,217.86a51.18,51.18,0,1,0-79.73,42.48v.23a17.59,17.59,0,0,0,5.8,3.69l.07-.23c2.39,2.06,12.49,5.35,24.08,5.32h.25c7.34,0,15.31-1.29,22.32-5.09,0,0,.06-.13.16-.39a18.39,18.39,0,0,0,4.83-3.3l.08-.58A51.11,51.11,0,0,0,102.36,217.86Z" style="fill: url(#a)"/>
  </g>
  <circle cx="50.65" cy="216.04" r="49.64" style="fill: #f5f5f5"/>
  <path d="M30.77,235.6s-11.83,1-8.7,22.52a17,17,0,0,0,5.64,3.58l6.65-22.52Z" style="fill: #fda57d"/>
  <path d="M69.15,235.6s11.83,1,8.7,22.52a17.09,17.09,0,0,1-5.63,3.58l-6.65-22.52Z" style="fill: #fda57d"/>
  <path d="M31.28,200.28s-5.63,16.38-8.7,14.84c0,0,29.63,25.59,55.78,0A78.22,78.22,0,0,0,67.1,200.28Z" style="fill: #333"/>
  <circle cx="50.27" cy="198.75" r="22.01" style="fill: #333"/>
  <path d="M68.92,235.6H30.54L27,251s-2.1,7.11.51,10.24,27.07,10.24,45,.51A20,20,0,0,0,73,248.91c-2-7.16-.51-.51-.51-.51Z" style="opacity: 0.10000000149011612;isolation: isolate"/>
  <path d="M69.43,235.6H31.05L27.47,251s-2.1,7.11.51,10.24,27.07,10.24,45,.51a20,20,0,0,0,.51-12.79c-2-7.16-.51-.51-.51-.51Z" style="opacity: 0.10000000149011612;isolation: isolate"/>
  <path d="M69.15,235.6H30.77L27.19,251s-2.1,7.11.51,10.24,27.07,10.24,45,.51a20,20,0,0,0,.51-12.79c-2-7.16-.51-.51-.51-.51Z" style="fill: #fdd835"/>
  <path d="M42.53,222.86H57.89v13.23a6.73,6.73,0,0,1-6.73,6.73h-1.9a6.73,6.73,0,0,1-6.73-6.73V222.86Z" style="opacity: 0.10000000149011612;isolation: isolate"/>
  <path d="M42.53,222.29H57.89v13.23a6.73,6.73,0,0,1-6.73,6.73h-1.9a6.73,6.73,0,0,1-6.73-6.73V222.29Z" style="fill: #fda57d"/>
  <path d="M42.56,224.5a22.15,22.15,0,0,0,15.35,0v-1.89H42.56Z" style="opacity: 0.10000000149011612;isolation: isolate"/>
  <circle cx="50.27" cy="203.52" r="22.01" style="fill: #fda57d"/>
  <path d="M29.23,195.17h42s-3.62-16.95-19.52-15.87S29.23,195.17,29.23,195.17Z" style="fill: #333"/>
  <ellipse cx="28.72" cy="202.59" rx="2.05" ry="3.84" style="fill: #fda57d"/>
  <ellipse cx="71.71" cy="202.59" rx="2.05" ry="3.84" style="fill: #fda57d"/>
  <path d="M29.23,195.73h42s-3.62-16.94-19.52-15.86S29.23,195.73,29.23,195.73Z" style="opacity: 0.10000000149011612;isolation: isolate"/>
  <g style="opacity: 0.5">
    <path d="M.71,51.18A51.18,51.18,0,1,1,80.44,93.66v.23a17.59,17.59,0,0,1-5.8,3.69l-.07-.23c-2.39,2.06-12.49,5.35-24.08,5.32h-.25c-7.34,0-15.31-1.29-22.32-5.09,0,0-.06-.13-.16-.39a18.39,18.39,0,0,1-4.83-3.3l-.08-.58A51.11,51.11,0,0,1,.71,51.18Z" style="fill: url(#b)"/>
  </g>
  <circle cx="51.92" cy="51.18" r="49.64" style="fill: #f5f5f5"/>
  <path d="M32.45,70.09s-11.83,1-8.7,22.52a17.09,17.09,0,0,0,5.63,3.58L36,73.67Z" style="fill: #be7c5e"/>
  <path d="M70.84,70.09s11.83,1,8.7,22.52a17.09,17.09,0,0,1-5.63,3.58L67.26,73.67Z" style="fill: #be7c5e"/>
  <path d="M33,34.78s-.91,2.65-2.2,5.72C28,47.21,31.17,73,37.9,75.71c7.56,3.08,17.5,5.05,27.83,1.29,9-3.27,11.74-32.59,5.4-39.74-.74-.84-1.52-1.67-2.33-2.48Z" style="fill: #333"/>
  <circle cx="51.96" cy="33.24" r="22.01" style="fill: #333"/>
  <path d="M70.61,70.09H32.23L28.65,85.44s-2.1,7.11.51,10.24,27.07,10.24,45,.51a20,20,0,0,0,.55-12.79c-2-7.16-.51-.51-.51-.51Z" style="opacity: 0.10000000149011612;isolation: isolate"/>
  <path d="M71.12,70.09H32.71L29.13,85.44s-2.1,7.11.51,10.24,27.07,10.24,45,.51a20,20,0,0,0,.51-12.79c-2-7.16-.51-.51-.51-.51Z" style="opacity: 0.10000000149011612;isolation: isolate"/>
  <path d="M70.84,70.09H32.45L28.87,85.44s-2.1,7.11.51,10.24,27.07,10.24,45,.51a20,20,0,0,0,.51-12.79c-2-7.16-.51-.51-.51-.51Z" style="fill: #3ad29f"/>
  <path d="M44.22,57.35H59.58V70.59a6.73,6.73,0,0,1-6.73,6.73H51a6.73,6.73,0,0,1-6.73-6.73h0V57.35Z" style="opacity: 0.10000000149011612;isolation: isolate"/>
  <path d="M44.22,56.78H59.58V70a6.73,6.73,0,0,1-6.73,6.73H51A6.73,6.73,0,0,1,44.22,70h0V56.78Z" style="fill: #be7c5e"/>
  <path d="M44.25,59A22.15,22.15,0,0,0,59.6,59V57.11H44.25Z" style="opacity: 0.10000000149011612;isolation: isolate"/>
  <circle cx="51.96" cy="38.02" r="22.01" style="fill: #be7c5e"/>
  <path d="M30.92,29.66h42S69.34,12.71,53.47,13.79,30.92,29.66,30.92,29.66Z" style="fill: #333"/>
  <ellipse cx="30.4" cy="37.08" rx="2.05" ry="3.84" style="fill: #be7c5e"/>
  <ellipse cx="73.39" cy="37.08" rx="2.05" ry="3.84" style="fill: #be7c5e"/>
  <path d="M30.92,30.23h42s-3.58-17-19.45-15.87S30.92,30.23,30.92,30.23Z" style="opacity: 0.10000000149011612;isolation: isolate"/>
  <g style="opacity: 0.5">
    <path d="M102.36,548a51.18,51.18,0,1,0-79.73,42.48v.23a17.59,17.59,0,0,0,5.8,3.69l.07-.23c2.39,2.06,12.49,5.35,24.08,5.32h.25c7.34,0,15.31-1.29,22.32-5.09,0,0,.06-.13.16-.39a18.39,18.39,0,0,0,4.83-3.3l.08-.58A51.11,51.11,0,0,0,102.36,548Z" style="fill: url(#c)"/>
  </g>
  <circle cx="50.65" cy="546.15" r="49.64" style="fill: #f5f5f5"/>
  <path d="M30.77,565.71s-11.83,1-8.7,22.52a17.09,17.09,0,0,0,5.63,3.58l6.65-22.52Z" style="fill: #be7c5e"/>
  <path d="M69.15,565.71s11.83,1,8.7,22.52a17.09,17.09,0,0,1-5.63,3.58l-6.65-22.52Z" style="fill: #be7c5e"/>
  <path d="M31.28,530.4s-5.63,29-8.7,27.42c0,0,29.63,25.59,55.78,0,0,0-4.61-20.76-11.26-27.42Z" style="fill: #333"/>
  <circle cx="50.27" cy="528.86" r="22.01" transform="translate(-479.55 567.63) rotate(-88.76)" style="fill: #333"/>
  <path d="M68.92,565.71H30.54L27,581.06s-2.1,7.11.51,10.24,27.07,10.24,45,.51A20,20,0,0,0,73,579c-2-7.16-.51-.51-.51-.51Z" style="opacity: 0.10000000149011612;isolation: isolate"/>
  <path d="M69.43,565.71H31.05l-3.58,15.35s-2.1,7.11.51,10.24,27.07,10.24,45,.51A20,20,0,0,0,73.49,579c-2-7.16-.51-.51-.51-.51Z" style="opacity: 0.10000000149011612;isolation: isolate"/>
  <path d="M69.15,565.71H30.77l-3.58,15.35s-2.1,7.11.51,10.24,27.07,10.24,45,.51A20,20,0,0,0,73.21,579c-2-7.16-.51-.51-.51-.51Z" style="fill: #f55f44"/>
  <path d="M42.53,553H57.89v13.23A6.73,6.73,0,0,1,51.16,573h-1.9a6.73,6.73,0,0,1-6.73-6.73V553Z" style="opacity: 0.10000000149011612;isolation: isolate"/>
  <path d="M42.53,552.41H57.89v13.23a6.73,6.73,0,0,1-6.73,6.73h-1.9a6.73,6.73,0,0,1-6.73-6.73V552.41Z" style="fill: #be7c5e"/>
  <path d="M42.56,554.62a22.15,22.15,0,0,0,15.35,0v-1.89H42.56Z" style="opacity: 0.10000000149011612;isolation: isolate"/>
  <circle cx="50.27" cy="533.64" r="22.01" transform="translate(-484.33 572.3) rotate(-88.76)" style="fill: #be7c5e"/>
  <path d="M29.23,525.28h42s-3.62-16.94-19.52-15.86S29.23,525.28,29.23,525.28Z" style="fill: #333"/>
  <ellipse cx="28.72" cy="532.7" rx="2.05" ry="3.84" style="fill: #be7c5e"/>
  <ellipse cx="71.71" cy="532.7" rx="2.05" ry="3.84" style="fill: #be7c5e"/>
  <path d="M29.23,525.85h42s-3.62-17-19.52-15.85S29.23,525.85,29.23,525.85Z" style="opacity: 0.10000000149011612;isolation: isolate"/>
  <g style="opacity: 0.5">
    <path d="M102.36,382.09a51.18,51.18,0,1,0-79.73,42.48v.23a17.59,17.59,0,0,0,5.8,3.69l.07-.23c2.39,2.06,12.49,5.35,24.08,5.32h.25c7.34,0,15.31-1.29,22.32-5.09,0,0,.06-.13.16-.39a18.39,18.39,0,0,0,4.83-3.3l.08-.58A51.11,51.11,0,0,0,102.36,382.09Z" style="fill: url(#d)"/>
  </g>
  <circle cx="51.18" cy="382.09" r="49.64" style="fill: #f5f5f5"/>
  <path d="M29.71,401.5S17.88,402.5,21,424a17.09,17.09,0,0,0,5.63,3.58l6.65-22.52Z" style="fill: #4d8af0"/>
  <path d="M68.09,401.5s11.83,1,8.7,22.52a17.09,17.09,0,0,1-5.63,3.58l-6.65-22.52Z" style="fill: #4d8af0"/>
  <circle cx="49.21" cy="364.66" r="22.01" transform="translate(-10.69 1.6) rotate(-1.68)" style="fill: #333"/>
  <path d="M67.86,401.5H29.48L25.9,416.85s-2.1,7.11.51,10.24,27.07,10.24,45,.51a20,20,0,0,0,.51-12.79c-2-7.16-.51-.51-.51-.51Z" style="fill: #4d8af0"/>
  <path d="M68.38,401.5H30l-3.58,15.35s-2.1,7.11.51,10.24,27.07,10.24,45,.51a20,20,0,0,0,.51-12.79c-2-7.16-.51-.51-.51-.51Z" style="fill: #4d8af0"/>
  <path d="M68.09,401.5H29.71l-3.58,15.35s-2.1,7.11.51,10.24,27.07,10.24,45,.51a20,20,0,0,0,.51-12.79c-2-7.16-.51-.51-.51-.51Z" style="fill: #4d8af0"/>
  <path d="M41.48,388.77H56.83V402a6.73,6.73,0,0,1-6.73,6.73H48.2A6.74,6.74,0,0,1,41.48,402V388.77Z" style="opacity: 0.10000000149011612;isolation: isolate"/>
  <path d="M41.48,388.2H56.83v13.23a6.73,6.73,0,0,1-6.73,6.73H48.2a6.73,6.73,0,0,1-6.73-6.73h0V388.2Z" style="fill: #be7c5e"/>
  <path d="M41.51,390.41a22.15,22.15,0,0,0,15.35,0v-1.89H41.51Z" style="opacity: 0.10000000149011612;isolation: isolate"/>
  <circle cx="49.21" cy="369.43" r="22.01" transform="translate(-10.83 1.6) rotate(-1.68)" style="fill: #be7c5e"/>
  <path d="M28.17,361.64h42s-3.61-16.94-19.46-15.86S28.17,361.64,28.17,361.64Z" style="opacity: 0.10000000149011612;isolation: isolate"/>
  <path d="M28.17,361.07h42s-3.58-16.95-19.45-15.87S28.17,361.07,28.17,361.07Z" style="fill: #333"/>
  <ellipse cx="27.66" cy="368.49" rx="2.05" ry="3.84" style="fill: #be7c5e"/>
  <ellipse cx="70.65" cy="368.49" rx="2.05" ry="3.84" style="fill: #be7c5e"/>
  <path d="M30.51,350.25a13.21,13.21,0,0,1,3.29-5.35c4.52-4.47,11.93-5.41,15.73-10.5a3,3,0,0,1-1.15,4.08l-.21.11c3.64,0,7.86-.34,9.92-3.34a6.81,6.81,0,0,1-1.15,7.19c3.23.15,6.67,2.34,6.88,5.56a6.43,6.43,0,0,1-3,5.41,16.74,16.74,0,0,1-6,2.26C48.71,357,26.5,362.69,30.51,350.25Z" style="fill: #333"/>
  <g style="opacity: 0.5">
    <rect x="205.41" y="35.49" width="588" height="31.69" style="fill: url(#e)"/>
  </g>
  <rect x="207.87" y="37.87" width="583.88" height="26.14" style="fill: #f5f5f5"/>
  <rect x="207.87" y="37.87" width="412.84" height="26.14" style="fill: #3ad29f"/>
  <g style="opacity: 0.5">
    <rect x="205.41" y="207.03" width="588" height="31.69" style="fill: url(#f)"/>
  </g>
  <rect x="207.87" y="209.41" width="583.88" height="26.14" style="fill: #f5f5f5"/>
  <rect x="207.87" y="209.41" width="572.39" height="26.14" style="fill: #00b49d"/>
  <g style="opacity: 0.5">
    <rect x="205.41" y="366.4" width="588" height="31.69" style="fill: url(#g)"/>
  </g>
  <rect x="207.87" y="368.78" width="583.88" height="26.14" style="fill: #f5f5f5"/>
  <rect x="207.87" y="368.78" width="89.53" height="26.14" style="fill: #f55f44"/>
  <g style="opacity: 0.5">
    <rect x="205.41" y="532.14" width="588" height="31.69" style="fill: url(#h)"/>
  </g>
  <rect x="207.87" y="534.52" width="583.88" height="26.14" style="fill: #f5f5f5"/>
  <rect x="207.87" y="534.52" width="529.84" height="26.14" style="fill: #00b49d"/>
</svg>
