<svg xmlns="http://www.w3.org/2000/svg" viewBox="0 0 690.61 673.31"><defs/><defs><style>.cls-1,.cls-2{fill:#078d7c}.cls-2{opacity:.08}</style></defs><g id="Layer_2" data-name="Layer 2"><g id="Layer_1-2" data-name="Layer 1"><path d="M270.23 435.46l-.23-13.12c-1.4.46-2.75.93-4 1.43a5.54 5.54 0 00-1.13.6 63.65 63.65 0 00-11.21 5.95 150.61 150.61 0 0013.64 6.42c.95-.44 1.92-.87 2.93-1.28zM251.36 343.51c2.08-.55 4.28-1.09 6.58-1.59q-.13-6.27-.19-12.53a146 146 0 00-20 5.46 6.42 6.42 0 00-1.28.65 79.66 79.66 0 00-19.23 10.61q5.86 3.33 12.38 6.42a84.92 84.92 0 0121.74-9.02z" class="cls-1"/><path d="M263.62 348.31a4.73 4.73 0 00.64 2.6 4.46 4.46 0 002.46.93l5.09.87c1.28.22 2.08.18 2.4-.1s.46-1.1.44-2.44q-.39-22.68.32-45.36l11.19 1.66c1.47.22 2.41.18 2.81-.1s.66-1.1.76-2.44.2-2.53.31-3.79a3.7 3.7 0 00-.38-2.56 5 5 0 00-2.81-1Q269 294 250.51 291.45q-2.35-.33-2.94.09c-.38.29-.55 1.1-.49 2.44s.11 2.53.17 3.8a4.14 4.14 0 00.7 2.6 5.82 5.82 0 002.9.92l11.38 1.7q.15 22.63 1.39 45.31zM287.27 336.27a26 26 0 002.38 9.27 20.12 20.12 0 008.27 9.06 21 21 0 009.73 2.85 17.72 17.72 0 0013.77-5 14 14 0 002.14-2.58 5.24 5.24 0 001-2.26 1.47 1.47 0 00-.46-1.31 5.26 5.26 0 00-2-.74l-3.68-.81c-.91-.18-1.4-.28-1.49-.28a1.58 1.58 0 00-1.38.72 9.5 9.5 0 01-14.65.83 13 13 0 01-2.67-7.62l25.05 1.07a4.1 4.1 0 002.49-.38 3.07 3.07 0 00.66-2.13 21.81 21.81 0 00-1.09-8.31 16.27 16.27 0 00-4-6.66c-3.48-3.34-8.27-5.13-14.23-5.36a23.74 23.74 0 00-10.5 1.79 13.75 13.75 0 00-7.37 7 21.06 21.06 0 00-1.97 10.85zm14-10.2a8.62 8.62 0 016-1.79 9.32 9.32 0 017.25 3.45 10.46 10.46 0 011.93 4.62l-18.14-.75a8.72 8.72 0 013-5.53zM333.36 353.83a15.82 15.82 0 0010.9 3.25 17.27 17.27 0 0010.58-4.21 15.25 15.25 0 005.5-10.48c.33-3.65-.8-6.4-3.45-8.24a28.41 28.41 0 00-7.31-2.92 21.43 21.43 0 01-4.86-1.84 2.28 2.28 0 01-1.18-2.06 3.09 3.09 0 011.27-2.42 5.33 5.33 0 013.13-1.11 6.53 6.53 0 013 .38 12.56 12.56 0 003.1 1.2 1.8 1.8 0 00.94-.29 11.77 11.77 0 001.42-1.4l1.45-1.67a4.88 4.88 0 001.4-2.15c.08-1.12-1.11-2.08-3.6-2.88a22.75 22.75 0 00-8.33-.95 17.09 17.09 0 00-9.31 3.08 11.53 11.53 0 00-5 10c0 3.48 1.33 6.05 3.79 7.71a33 33 0 007.16 2.87 15.64 15.64 0 014.59 2 2.81 2.81 0 011 2.49 4.42 4.42 0 01-1.5 3.11 5.27 5.27 0 01-3.31 1.42 8.27 8.27 0 01-6-1.78c-1.22-1-2-1.46-2.42-1.44-.55 0-1.25.61-2.1 1.73-.52.67-1 1.33-1.55 2a4.6 4.6 0 00-1.12 2.14c-.01.74.61 1.57 1.81 2.46zM363.93 325a4.11 4.11 0 002.6.12l1.25-.19q-.11 12.87-.55 25.72a3.83 3.83 0 00.4 2.44c.34.28 1.13.33 2.35.13l4.43-.73a4.28 4.28 0 002.42-.9 4.72 4.72 0 00.68-2.6q.9-12.86 1.46-25.72l4.77-.7a5.17 5.17 0 002.72-.91 4.23 4.23 0 00.72-2.55c.06-1 .13-2.08.2-3.12.08-1.34-.06-2.15-.41-2.44s-1.27-.33-2.74-.12l-4.91.7c.12-3.29.21-6.58.29-9.87 0-1.31-.14-2.12-.52-2.44a4.73 4.73 0 00-2.8-.12l-5.2.72a5.37 5.37 0 00-2.79.9 3.93 3.93 0 00-.54 2.6q0 4.93.06 9.87l-1.29.19a4.81 4.81 0 00-2.67.9 4.13 4.13 0 00-.52 2.6v3.12c.05 1.27.23 2.07.59 2.4zM218.93 228.08c4.92-1.35 10.29-2.61 16.06-3.76q-.06-6.26-.08-12.51c-6.87 1.32-13.28 2.79-19.16 4.4h-.09l-.39.12-1.7.46a119 119 0 00-23.09 8.87 96.77 96.77 0 00-16 9.93 103.24 103.24 0 0010.6 7.45c8.68-5.97 19.92-11.14 33.85-14.96zM276.15 430.41a2.56 2.56 0 001.26.55q5.74 1.35 11.3 2.71c.64.16 1 .17 1.21 0s.25-.52.26-1.18 0-1.25 0-1.87a2.2 2.2 0 00-.23-1.3 2.26 2.26 0 00-1.22-.54q-3.67-.88-7.42-1.75-.24-11.18.17-22.35a1.91 1.91 0 00-.24-1.3 2.74 2.74 0 00-1.39-.54l-3-.62a2.36 2.36 0 00-1.44 0c-.19.13-.3.52-.3 1.18q-.09 12.86.7 25.71a2.33 2.33 0 00.34 1.3zM293.39 429.59a11.12 11.12 0 004.22 4.75 11.37 11.37 0 004.9 1.73 8.05 8.05 0 006.76-2.05 5.71 5.71 0 001-1.23 2.29 2.29 0 00.44-1.09.79.79 0 00-.25-.68 3 3 0 00-1-.43l-1.83-.51c-.45-.12-.7-.19-.74-.19a.69.69 0 00-.67.32 3.94 3.94 0 01-3.92 1.68 4.82 4.82 0 01-3.33-1.72 6.89 6.89 0 01-1.41-3.86q6.24.63 12.37 1.28a2.06 2.06 0 001.22-.11c.17-.14.27-.49.28-1.05a11.5 11.5 0 00-.67-4.19 9.4 9.4 0 00-2.06-3.44 11 11 0 00-7-3.07 11.24 11.24 0 00-5.13.6 6.18 6.18 0 00-3.57 3.26 10.17 10.17 0 00-.87 5.33 13.29 13.29 0 001.26 4.67zm5.6-9.32a3.9 3.9 0 012.91-.72 5 5 0 013.59 1.92 5.77 5.77 0 011 2.36l-8.93-.9a3.93 3.93 0 011.44-2.66zM316.3 434a8.11 8.11 0 006.41 3.22 7 7 0 005.74-3.12v1a2.19 2.19 0 00.19 1.28c.15.17.53.26 1.14.26h2.09a1.73 1.73 0 001.17-.25 2.2 2.2 0 00.32-1.27l1.05-16.1c.05-.68 0-1.1-.18-1.28s-.58-.26-1.27-.26h-2.34a2.07 2.07 0 00-1.28.26A1.92 1.92 0 00329 419v.93a7.94 7.94 0 00-6.37-3.1 8.76 8.76 0 00-6.17 2.42 9.31 9.31 0 00-2.74 7.71 11.61 11.61 0 002.58 7.04zm4.15-10.79a5.13 5.13 0 017.41 0 4.83 4.83 0 011.38 3.72 5.73 5.73 0 01-1.6 3.86 4.73 4.73 0 01-3.55 1.57 4.63 4.63 0 01-3.53-1.59A5.56 5.56 0 01319 427a5 5 0 011.45-3.78zM339.1 436.19l2.11-.17a1.86 1.86 0 001.18-.36 2.24 2.24 0 00.3-1.29c.14-2.55.26-5.1.38-7.65a7 7 0 011.39-4.44 4.59 4.59 0 013.2-1.63 7.46 7.46 0 011.74.15 1.43 1.43 0 00.38 0 .82.82 0 00.65-.33 3.31 3.31 0 00.4-1.11c.15-.64.31-1.28.46-1.92a5.74 5.74 0 00.15-.79c.06-.73-.65-1-2.14-.93a7.24 7.24 0 00-5.93 3.93l.06-1.36c0-.67-.05-1.09-.22-1.25s-.6-.22-1.29-.17l-2.36.18a2.12 2.12 0 00-1.28.35 2 2 0 00-.27 1.29q-.08 8-.25 16c0 .68.05 1.09.21 1.25s.53.3 1.13.25zM352.76 433.58c0 .66.06 1.07.22 1.21s.54.15 1.16 0l2.16-.41a2.21 2.21 0 001.21-.48 2.41 2.41 0 00.31-1.31q.18-4.12.3-8.25a7.36 7.36 0 011.11-4.12 4.74 4.74 0 013.2-1.83c1.57-.27 2.64 0 3.17.92a5.6 5.6 0 01.33 3q-.3 4.47-.69 8.93c-.06.66 0 1.06.14 1.21s.55.15 1.17 0l2.25-.41a2.41 2.41 0 001.24-.48 2.45 2.45 0 00.4-1.3c.4-3.49.77-7 1.1-10.46a10 10 0 00-.07-3 3.79 3.79 0 00-1.07-1.92c-1.31-1.28-3.26-1.7-5.76-1.28a9.76 9.76 0 00-4.13 1.66 10.49 10.49 0 00-2.25 2.36v-.83c0-.66-.08-1.06-.26-1.2s-.62-.15-1.32 0l-2.4.41a2.36 2.36 0 00-1.29.48 2.06 2.06 0 00-.25 1.3q.15 7.88.02 15.8zM241.15 238.33a4.31 4.31 0 002.46.87l16 2.29c6.07.88 10.7 0 14-2.53s5.24-6.36 5.47-11.27a16.21 16.21 0 00-3.65-11.62 16.69 16.69 0 00-7.49-4.69 11.58 11.58 0 004.34-2.94 13.2 13.2 0 002.65-7.91 17 17 0 00-1.12-7 14.74 14.74 0 00-3.75-5.69q-4.49-4.11-15.14-5.48l-12.27-1.58c-1.45-.18-2.36-.13-2.72.17s-.55 1.11-.54 2.45q.19 26.18 1.13 52.36a4.48 4.48 0 00.63 2.57zm10.39-47.17l3.56.47c3 .39 5.31 1.33 6.81 2.8a7.57 7.57 0 012.14 5.93 6.59 6.59 0 01-2.44 5.39c-1.47 1.06-3.73 1.39-6.83 1l-3.34-.45q.02-7.59.1-15.14zm4.22 24.35a32.83 32.83 0 015.34 1.07 11.49 11.49 0 013.32 1.75 8.14 8.14 0 013.21 6.93q-.12 4.53-3.49 6.08c-1.74.78-4.34.93-7.82.43l-4.78-.67q-.09-8.08-.1-16.18zM291.08 241.28c3.28 3.35 7.78 5.13 13.6 5.36s10.25-1.21 13.49-4.32c2.63-2.52 4.06-6.21 4.23-11.08q.35-10.22.72-20.42a2.35 2.35 0 00-2.93-3.18l-4.69-.17a2.31 2.31 0 00-3.09 3q-.15 9.3-.28 18.61-.06 4.32-1.95 6.45a6.68 6.68 0 01-5.57 2 7.26 7.26 0 01-6.2-3.3 11 11 0 01-1.33-5.7q-.15-9.31-.28-18.62a4.1 4.1 0 00-.56-2.56 4.16 4.16 0 00-2.58-.61l-4.66-.17c-1.34-.05-2.18.09-2.52.43s-.48 1.17-.43 2.53q.34 10.22.73 20.42c.22 4.79 1.64 8.58 4.3 11.33zM337.81 207.29l-4.7.09a3.91 3.91 0 00-2.52.57 4 4 0 00-.5 2.56q.09 16.1.15 32.18a4.18 4.18 0 00.49 2.54c.32.34 1.1.5 2.34.47l4.35-.09a3.55 3.55 0 002.34-.57 4.3 4.3 0 00.53-2.56q.29-16.09.52-32.19a4 4 0 00-.49-2.54 3.83 3.83 0 00-2.51-.46zM335.49 197.65a6.63 6.63 0 004.7-2 6.41 6.41 0 002-4.62 5.86 5.86 0 00-1.89-4.52 6.55 6.55 0 00-4.77-1.79h-.07a6.75 6.75 0 00-4.68 2 6 6 0 00-1.94 4.55 6.18 6.18 0 002 4.58 6.28 6.28 0 004.65 1.8zM348.22 244.72q.48.5 2.34.39l4.32-.24a3.79 3.79 0 002.4-.65 4.48 4.48 0 00.55-2.57q.68-30.06 1-60.12c0-1.35-.16-2.19-.53-2.52s-1.26-.45-2.7-.38l-4.92.24a4.41 4.41 0 00-2.65.65 3.89 3.89 0 00-.52 2.57q.28 30.06.22 60.12a4.06 4.06 0 00.49 2.51zM382.66 243.62c4.78-.62 8.77-3.21 12-7.76v1.93q-.06 2 .42 2.46c.32.31 1.11.37 2.37.21l4.45-.57a4.22 4.22 0 002.43-.83 4.67 4.67 0 00.62-2.59q1.46-29.86 2.06-59.74c0-1.34-.15-2.17-.51-2.47s-1.27-.37-2.7-.2l-5 .57a4.87 4.87 0 00-2.69.83 4 4 0 00-.56 2.59q0 14.82-.21 29.63a14.77 14.77 0 00-13-4.56 19.94 19.94 0 00-12.34 6.36c-4.11 4.35-5.94 9.72-5.7 16.09.22 5.66 2 10.14 5.12 13.42a14.7 14.7 0 0013.24 4.63zm-4.54-27.23a11.55 11.55 0 017.52-4.06 9.3 9.3 0 017.53 2.2 8.52 8.52 0 013 7 12.29 12.29 0 01-3.21 8.06 11.59 11.59 0 01-7.37 4.06 8.69 8.69 0 01-7.29-2.2 9.43 9.43 0 01-3.17-7.16 11.2 11.2 0 012.99-7.9z" class="cls-1"/><path d="M477 245.37a16 16 0 00-1.18-5.37 19.88 19.88 0 00-2.92-4.84 34.8 34.8 0 00-8.52-7.28c-6-3.76-13.64-7-22.85-9.86a246.54 246.54 0 00-30.53-7.16q-.1 6.22-.24 12.45c2 .37 4.06.75 6 1.14a215.73 215.73 0 0121.24 5.36 115.38 115.38 0 0112.37 4.58c5.32 2.36 9.28 4.87 11.56 7a11.24 11.24 0 012.26 2.81 3.74 3.74 0 01.5 1.76 3.39 3.39 0 01-.28 1.3 7.75 7.75 0 01-1.13 1.82 22.77 22.77 0 01-5.53 4.61c-4.57 2.9-11.39 5.87-19.93 8.52-12.81 4-29.46 7.35-48.61 9.68a533.67 533.67 0 01-63.71 3.65 508 508 0 01-77.16-5.52c-5.91-.93-11.51-2-16.75-3.08-3.32-.71-6.51-1.45-9.53-2.22-26.5-7.5-45.86-18.55-58.49-31.34a76.37 76.37 0 01-4.79-5.07 68.06 68.06 0 01-10.94-17.18 58.81 58.81 0 01-3.84-13.06 55.66 55.66 0 01-.81-6.82l-.07-.86v-4.32a12.45 12.45 0 01.06-1.73 78.09 78.09 0 017-27.14 114.35 114.35 0 0115.41-24.3 164.6 164.6 0 0120.53-20.8 223.92 223.92 0 0123.78-17.39c16.61-10.63 34.57-19.18 53-26.41-18.8 6.27-37.26 13.9-54.61 23.78a226.4 226.4 0 00-25.09 16.44 169.72 169.72 0 00-22.3 20.37 121.64 121.64 0 00-17.65 24.94 86.61 86.61 0 00-9.25 29.74 16.18 16.18 0 00-.17 2l-.11 2-.11 2-.05 1v1a64.54 64.54 0 00.52 8 69.58 69.58 0 003.71 15.61 81.79 81.79 0 0017 26.94l.22.22.06.05c2 2 4.21 4 6.5 5.95a58.93 58.93 0 00-7.89 13.25 53.69 53.69 0 00-4.29 21.08c0 11.28 3.45 22.74 10 33.69s16.09 21.47 28.52 31.06a168.28 168.28 0 0017.17 11.55 43.1 43.1 0 00-3.92 7.24 41.27 41.27 0 00-3.31 16.24c0 9.81 3.39 19.72 9.63 29s15.38 18 27.16 25.69c2.37 1.54 4.85 3 7.43 4.5a34.8 34.8 0 00-2.79 4.86 31.62 31.62 0 00-3 12.4v1.16a37.23 37.23 0 002.3 12.65 52.71 52.71 0 0011.48 18 85.4 85.4 0 0020.41 15.59c8 4.49 16.84 9.07 25.61 14.61a137 137 0 0119.18 14.32 93.89 93.89 0 0123.18 31.69c5.92 13.31 9.68 29.86 9.68 51.09a218.61 218.61 0 01-2.28 30.42l-11.34-16.89-3.41 17.36 16.44 24.47 24.47-16.5 3.41-17.36-17.57 11.81A232.9 232.9 0 00360.4 618c0-20.16-3.19-36.92-8.61-51a104.87 104.87 0 00-15.41-27.17c-9.06-11.53-19.72-20.15-30.25-27.11s-21-12.3-29.65-17.19c-9.75-5.48-16.82-11.74-21.37-17.94a36.69 36.69 0 01-5-9.14 24.91 24.91 0 01-1.57-8.48v-.74a19.43 19.43 0 011.84-7.62 22.56 22.56 0 012.74-4.4A180.37 180.37 0 00270 454a6.27 6.27 0 001.45.31c1.46.45 3 .88 4.57 1.28a164.55 164.55 0 0022.37 3.79 269.49 269.49 0 0053.88 0c6.2-.64 11.95-1.51 17.15-2.56a108.66 108.66 0 0010.72-2.7 61.19 61.19 0 006.68-2.49 28 28 0 007.84-4.91 14 14 0 002.84-3.67 10.81 10.81 0 001.26-5v-.63a10.36 10.36 0 00-.78-3.4 12.17 12.17 0 00-1.83-3.05 19.37 19.37 0 00-4.73-4.07A48.56 48.56 0 00380 422c-.91-.28-1.85-.56-2.82-.82l-.44 12.68a48.55 48.55 0 015 1.88 18.74 18.74 0 014.07 2.33c-.13.11-.28.23-.45.35a31.1 31.1 0 01-7.93 3.64 121.88 121.88 0 01-22.09 4.59 242.45 242.45 0 01-29.88 1.77 233.61 233.61 0 01-33.44-2.26c-4.23-.62-8.09-1.35-11.54-2.17l-1.53-.36a62.93 62.93 0 01-9.51-3.1 6.09 6.09 0 00-1.64-.46 143.21 143.21 0 01-26.5-13.34c-1.19-.78-2.33-1.56-3.45-2.35-8.93-6.32-15.67-13.13-20.23-19.92-5.14-7.64-7.54-15.16-7.54-22.11a29.15 29.15 0 012.33-11.44 32.36 32.36 0 013.45-6.12q8.39 4.24 17.76 8c2.53 1 5.14 2 7.78 2.95a6.07 6.07 0 001.52.72 213.93 213.93 0 0036.28 7.19 392 392 0 0046.26 2.64 399.88 399.88 0 0040.82-2c9.44-1 18.2-2.3 26.07-3.89a162.56 162.56 0 0016.17-4.08 90.33 90.33 0 009.93-3.69 39.82 39.82 0 0011.14-7 18.22 18.22 0 003.71-4.77 13 13 0 001.55-6.12v-.63a12.9 12.9 0 00-1-4.31 15.63 15.63 0 00-2.33-3.88 26.23 26.23 0 00-6.49-5.55 71.42 71.42 0 00-16.65-7.21 185.22 185.22 0 00-24.68-5.6q-.13 6.19-.34 12.4c2.26.39 4.45.79 6.55 1.22A148.78 148.78 0 01404.9 345a79.6 79.6 0 018.59 3.18 28.32 28.32 0 017.72 4.67 6.11 6.11 0 011.25 1.53.92.92 0 01.15.42s0 .06-.07.25a3.45 3.45 0 01-.54.85 14.58 14.58 0 01-3.49 2.89 59.76 59.76 0 01-13.74 5.85 199.61 199.61 0 01-34.22 6.81 376.3 376.3 0 01-45 2.58 377 377 0 01-44.79-2.55 212.58 212.58 0 01-31.42-5.93c-1.31-.46-2.58-.93-3.86-1.39-2.44-.89-4.85-1.8-7.18-2.74-17.16-6.9-31.46-15.05-42.85-23.83q-2.25-1.74-4.35-3.51A96.56 96.56 0 01170 310c-5.57-9.39-8.23-18.67-8.23-27.42a41.42 41.42 0 013.3-16.28 47.08 47.08 0 016.41-10.68 140.67 140.67 0 0019.66 10.92 6.36 6.36 0 00.87.54 128.56 128.56 0 0023.43 8.61c1.11.31 2.25.6 3.39.9.57.16 1.12.33 1.69.48a6.1 6.1 0 00.93.18 345.64 345.64 0 0043 7.35 551.18 551.18 0 0061.12 3.26 557.64 557.64 0 0057.2-2.84c13.22-1.37 25.47-3.21 36.47-5.44a226.63 226.63 0 0022.5-5.67 128.19 128.19 0 0013.71-5.09c6.12-2.74 11.15-5.73 15-9.32a23 23 0 004.72-6A15.92 15.92 0 00477 246v-.63z" class="cls-1"/><path d="M610.45 442.59L358.17 621.38 68.48 513.27 31.07 226.38 283.35 47.6l289.69 108.11 37.41 286.88z" class="cls-2"/><path d="M546.13 41.13l144.48 309.26-174.52 293.36-318.99-15.9L52.63 318.59 227.14 25.23l318.99 15.9z" class="cls-2"/><path d="M493.5 15.9l144.48 309.26-174.52 293.36-318.99-15.9L0 293.36 174.51 0 493.5 15.9z" class="cls-2"/></g></g></svg>