<svg xmlns="http://www.w3.org/2000/svg" xmlns:xlink="http://www.w3.org/1999/xlink" width="100.26mm" height="85.78mm" viewBox="0 0 284.2 243.15">
  <defs>
    <linearGradient id="a" x1="435.93" y1="-273.93" x2="435.93" y2="-95.98" gradientTransform="matrix(0, 1, 1, 0, 392.2, -338.35)" gradientUnits="userSpaceOnUse">
      <stop offset="0" stop-color="gray" stop-opacity="0.25"/>
      <stop offset="0.54" stop-color="gray" stop-opacity="0.12"/>
      <stop offset="1" stop-color="gray" stop-opacity="0.1"/>
    </linearGradient>
    <linearGradient id="b" x1="408.06" y1="-155.94" x2="408.06" y2="-119.18" gradientTransform="matrix(0.99, 0.15, 0.15, -0.99, -196.32, -150.33)" xlink:href="#a"/>
    <linearGradient id="c" x1="510.81" y1="408.7" x2="510.81" y2="586.65" gradientTransform="matrix(1, 0, 0, -1, -434.27, 622.76)" xlink:href="#a"/>
    <linearGradient id="d" x1="485.46" y1="526.21" x2="485.46" y2="564" gradientTransform="matrix(0.99, -0.16, -0.16, -0.99, -347.13, 696.11)" xlink:href="#a"/>
    <linearGradient id="e" x1="297.17" y1="139.59" x2="297.17" y2="317.53" gradientTransform="matrix(1, 0, 0, -1, -141, 371.32)" xlink:href="#a"/>
    <linearGradient id="f" x1="-602.92" y1="181" x2="-602.92" y2="219.64" gradientTransform="translate(-473.49 295.29) rotate(180)" xlink:href="#a"/>
    <linearGradient id="g" x1="352.88" y1="128.17" x2="352.88" y2="183.04" gradientTransform="matrix(1, 0, 0, -1, -141, 371.32)" xlink:href="#a"/>
  </defs>
  <title>reports-and-findings</title>
  <g>
    <g style="opacity: 0.5">
      <rect x="118.28" y="33.19" width="177.95" height="128.79" transform="translate(79.84 287.96) rotate(-81.42)" style="fill: url(#a)"/>
    </g>
    <rect x="120.34" y="34.18" width="174.01" height="125.51" transform="translate(80.56 287.51) rotate(-81.42)" style="fill: #f5f5f5"/>
    <rect x="205.18" y="42.83" width="5.49" height="90.59" transform="translate(89.76 280.58) rotate(-81.42)" style="fill: #e0e0e0"/>
    <rect x="203.13" y="56.4" width="5.49" height="90.59" transform="translate(74.6 290.1) rotate(-81.42)" style="fill: #e0e0e0"/>
    <rect x="233.44" y="24.64" width="5.49" height="46.67" transform="translate(153.52 274.36) rotate(-81.42)" style="fill: #e0e0e0"/>
    <rect x="231.4" y="42.33" width="5.49" height="38.43" transform="matrix(0.15, -0.99, 0.99, 0.15, 138.35, 283.89)" style="fill: #00b49d"/>
    <rect x="195.65" y="74.65" width="5.49" height="79.61" transform="translate(55.63 293.55) rotate(-81.42)" style="fill: #e0e0e0"/>
    <rect x="188.17" y="92.89" width="5.49" height="68.63" transform="translate(36.65 297.01) rotate(-81.42)" style="fill: #e0e0e0"/>
    <rect x="182.06" y="109.97" width="5.49" height="60.39" transform="translate(18.64 301.98) rotate(-81.42)" style="fill: #e0e0e0"/>
    <rect x="188.15" y="116.53" width="5.49" height="76.86" transform="translate(9.19 320.6) rotate(-81.42)" style="fill: #e0e0e0"/>
    <rect x="163.03" y="149.96" width="5.49" height="30.2" transform="translate(-22.16 304.35) rotate(-81.42)" style="fill: #00b49d"/>
    <g style="opacity: 0.5">
      <path d="M204.78,49.24A18.32,18.32,0,1,0,174.29,60v.09a6.12,6.12,0,0,0,1.85,1.62l0-.08c.74.86,4.13,2.56,8.24,3.17h.09a16.7,16.7,0,0,0,8.17-.61l.08-.13a6.73,6.73,0,0,0,1.89-.91l0-.2A18.3,18.3,0,0,0,204.78,49.24Z" style="fill: url(#b)"/>
    </g>
    <circle cx="186.58" cy="45.84" r="17.77" style="fill: #f5f5f5"/>
    <path d="M178.48,51.7s-4.23-.29-4.28,7.51a6.17,6.17,0,0,0,1.8,1.57l3.56-7.62Z" style="fill: #fda57d"/>
    <path d="M192.07,53.75s4.13,1,1.88,8.44a6.25,6.25,0,0,1-2.19,1l-1.15-8.32Z" style="fill: #fda57d"/>
    <path d="M180.55,39.23s-2.87,5.5-3.88,4.79c0,0,9.13,10.64,19.75,3a27.45,27.45,0,0,0-3.19-5.85Z" style="fill: #333"/>
    <circle cx="187.37" cy="39.71" r="7.88" style="fill: #333"/>
    <path d="M192,53.74,178.4,51.69l-2.09,5.24s-1.12,2.41-.36,3.65,9,5.07,15.93,2.6a7.18,7.18,0,0,0,.86-4.5c-.34-2.64-.15-.21-.15-.21Z" style="opacity: 0.10000000149011612;isolation: isolate"/>
    <path d="M192.17,53.77l-13.59-2.05L176.5,57s-1.13,2.4-.37,3.65,9,5.07,15.93,2.6a7.15,7.15,0,0,0,.87-4.5c-.34-2.65-.16-.21-.16-.21Z" style="opacity: 0.10000000149011612;isolation: isolate"/>
    <path d="M192.07,53.75l-13.59-2L176.39,57s-1.12,2.4-.36,3.65,9,5.06,15.93,2.6a7.23,7.23,0,0,0,.86-4.51c-.34-2.64-.15-.2-.15-.2Z" style="fill: #fdd835"/>
    <path d="M183.32,47.83l5.44.82h0L188,53.56a2.19,2.19,0,0,1-2.49,1.84l-1.11-.17a2.19,2.19,0,0,1-1.84-2.49l.74-4.91Z" style="opacity: 0.10000000149011612;isolation: isolate"/>
    <path d="M183.35,47.63l5.44.82h0l-.74,4.91a2.2,2.2,0,0,1-2.49,1.84L184.45,55a2.19,2.19,0,0,1-1.84-2.49l.74-4.91Z" style="fill: #fda57d"/>
    <path d="M183.25,48.4a7.9,7.9,0,0,0,5.43.84l.1-.67-5.43-.82Z" style="opacity: 0.10000000149011612;isolation: isolate"/>
    <circle cx="187.11" cy="41.39" r="7.88" style="fill: #fda57d"/>
    <path d="M180.09,37.31,195,39.55s-.36-6.18-6-6.66S180.09,37.31,180.09,37.31Z" style="fill: #333"/>
    <ellipse cx="179.53" cy="39.91" rx="1.38" ry="0.73" transform="translate(113.29 211.48) rotate(-81.42)" style="fill: #fda57d"/>
    <ellipse cx="194.75" cy="42.21" rx="1.38" ry="0.73" transform="translate(123.96 228.48) rotate(-81.42)" style="fill: #fda57d"/>
    <path d="M180.07,37.51l14.86,2.24s-.37-6.18-6-6.66S180.07,37.51,180.07,37.51Z" style="opacity: 0.10000000149011612;isolation: isolate"/>
    <g style="opacity: 0.5">
      <rect x="13.41" y="34.44" width="129.16" height="178.46" transform="translate(-18.73 14.03) rotate(-9.18)" style="fill: url(#c)"/>
    </g>
    <rect x="14.97" y="35.32" width="125.51" height="174.01" transform="translate(-18.77 14.19) rotate(-9.31)" style="fill: #f5f5f5"/>
    <rect x="30.3" y="111" width="90.59" height="5.49" transform="translate(-17.41 13.73) rotate(-9.31)" style="fill: #e0e0e0"/>
    <rect x="32.52" y="124.55" width="90.59" height="5.49" transform="translate(-19.57 14.26) rotate(-9.31)" style="fill: #e0e0e0"/>
    <rect x="66.83" y="64.11" width="46.67" height="5.49" transform="translate(-9.63 15.47) rotate(-9.31)" style="fill: #e0e0e0"/>
    <rect x="73.16" y="77.65" width="38.43" height="5.49" transform="translate(-11.79 16) rotate(-9.31)" style="fill: #00b49d"/>
    <rect x="34.81" y="138.98" width="79.61" height="5.49" transform="translate(-21.95 13.94) rotate(-9.31)" style="fill: #e0e0e0"/>
    <rect x="37.1" y="153.41" width="68.63" height="5.49" transform="translate(-24.32 13.61) rotate(-9.31)" style="fill: #e0e0e0"/>
    <rect x="39.38" y="167.63" width="60.39" height="5.49" transform="translate(-26.65 13.5) rotate(-9.31)" style="fill: #e0e0e0"/>
    <rect x="41.49" y="179.84" width="76.86" height="5.49" transform="translate(-28.48 15.33) rotate(-9.31)" style="fill: #e0e0e0"/>
    <rect x="44.02" y="197.16" width="30.2" height="5.49" transform="matrix(0.99, -0.16, 0.16, 0.99, -31.56, 12.2)" style="fill: #00b49d"/>
    <g style="opacity: 0.5">
      <path d="M62.33,76.54A18.84,18.84,0,1,0,35.89,96.71l0,.09a6.35,6.35,0,0,0,2.33,1V97.7c1,.61,4.85,1.2,9.06.5h.09A17.18,17.18,0,0,0,55.21,95a.59.59,0,0,1,0-.15,6.85,6.85,0,0,0,1.56-1.48v-.22A18.83,18.83,0,0,0,62.33,76.54Z" style="fill: url(#d)"/>
    </g>
    <circle cx="43.74" cy="79.58" r="18.27" style="fill: #f5f5f5"/>
    <path d="M37.09,87.91s-4.23,1.06-1.82,8.7a6.42,6.42,0,0,0,2.26,1L38.61,89Z" style="fill: #4d8af0"/>
    <path d="M51,85.63s4.35-.36,4.5,7.66a6.34,6.34,0,0,1-1.83,1.63l-3.76-7.79Z" style="fill: #4d8af0"/>
    <circle cx="41.99" cy="73.37" r="8.1" style="fill: #333"/>
    <path d="M51,85.64,37,87.92l-.39,5.79s-.32,2.71.8,3.68S47.86,99.5,53.81,94.9a7.4,7.4,0,0,0-.58-4.68c-1.17-2.48-.22-.16-.22-.16Z" style="fill: #4d8af0"/>
    <path d="M51.14,85.61l-14,2.28-.38,5.79s-.33,2.71.79,3.69,10.45,2.1,16.39-2.5a7.33,7.33,0,0,0-.57-4.68c-1.17-2.48-.22-.16-.22-.16Z" style="fill: #4d8af0"/>
    <path d="M51,85.63,37.09,87.9l-.39,5.8s-.32,2.71.8,3.69,10.44,2.11,16.39-2.5a7.37,7.37,0,0,0-.58-4.67c-1.17-2.48-.21-.16-.21-.16Z" style="fill: #4d8af0"/>
    <path d="M40.61,82.58l5.58-.91h0L47,86.76a2.18,2.18,0,0,1-1.8,2.51h0L44,89.48a2.19,2.19,0,0,1-2.52-1.8h0l-.83-5.1Z" style="opacity: 0.10000000149011612;isolation: isolate"/>
    <path d="M40.58,82.38l5.58-.92h0L47,86.55a2.19,2.19,0,0,1-1.81,2.52h0l-1.26.2a2.18,2.18,0,0,1-2.51-1.8h0l-.83-5.09Z" style="fill: #fda57d"/>
    <path d="M40.72,83.18a8.08,8.08,0,0,0,5.57-.9l-.11-.68-5.57.91Z" style="opacity: 0.10000000149011612;isolation: isolate"/>
    <circle cx="42.27" cy="75.1" r="8.1" style="fill: #fda57d"/>
    <path d="M34.16,73.53,49.41,71s-2.32-5.94-8-4.6S34.16,73.53,34.16,73.53Z" style="opacity: 0.10000000149011612;isolation: isolate"/>
    <path d="M34.13,73.32l15.25-2.5s-2.31-5.94-8-4.6S34.13,73.32,34.13,73.32Z" style="fill: #333"/>
    <ellipse cx="34.49" cy="76.52" rx="0.76" ry="1.42" transform="translate(-11.77 6.48) rotate(-9.18)" style="fill: #fda57d"/>
    <ellipse cx="50" cy="73.48" rx="0.75" ry="1.41" transform="translate(-11.23 9.06) rotate(-9.31)" style="fill: #fda57d"/>
    <g style="opacity: 0.5">
      <rect x="91.78" y="53.79" width="128.79" height="177.95" style="fill: url(#e)"/>
    </g>
    <rect x="93.41" y="55.1" width="125.51" height="174.01" style="fill: #fff"/>
    <g style="opacity: 0.5">
      <path d="M110.18,94.91a19.26,19.26,0,1,1,30,16V111a6.53,6.53,0,0,1-2.19,1.39l0-.08c-.9.77-4.7,2-9.06,2h-.1a17.68,17.68,0,0,1-8.4-1.92l-.06-.14a7,7,0,0,1-1.81-1.25l0-.22A19.23,19.23,0,0,1,110.18,94.91Z" style="fill: url(#f)"/>
    </g>
    <circle cx="129.43" cy="94.91" r="18.68" style="fill: #f5f5f5"/>
    <path d="M122.1,102s-4.45.36-3.27,8.49a6.36,6.36,0,0,0,2.12,1.34l2.5-8.47Z" style="fill: #be7c5e"/>
    <path d="M136.55,102s4.45.36,3.27,8.49a6.36,6.36,0,0,1-2.12,1.34l-2.49-8.5Z" style="fill: #be7c5e"/>
    <path d="M122.3,88.73s-.35,1-.83,2.16c-1.06,2.52.15,12.21,2.68,13.25a14.39,14.39,0,0,0,10.47.48c3.38-1.23,4.42-12.26,2-15-.28-.33-.58-.63-.88-.94Z" style="fill: #333"/>
    <circle cx="129.44" cy="88.16" r="8.28" style="fill: #333"/>
    <path d="M136.46,102H122l-1.35,5.77s-.79,2.68.19,3.86,10.19,3.85,17,.19A7.51,7.51,0,0,0,138,107c-.77-2.69-.19-.19-.19-.19Z" style="opacity: 0.10000000149011612;isolation: isolate"/>
    <path d="M136.66,102H122.2l-1.34,5.77s-.8,2.68.19,3.86,10.18,3.85,16.94.19a7.58,7.58,0,0,0,.2-4.82c-.77-2.69-.2-.19-.2-.19Z" style="opacity: 0.10000000149011612;isolation: isolate"/>
    <path d="M136.55,102H122.1l-1.35,5.77s-.79,2.68.2,3.86,10.18,3.85,16.94.19a7.58,7.58,0,0,0,.2-4.82c-.77-2.69-.2-.19-.2-.19Z" style="fill: #3ad29f"/>
    <path d="M126.53,97.23h5.78v5.33a2.18,2.18,0,0,1-2.19,2.18h-1.4a2.18,2.18,0,0,1-2.19-2.18h0V97.23Z" style="opacity: 0.10000000149011612;isolation: isolate"/>
    <path d="M126.53,97h5.78v5.32a2.19,2.19,0,0,1-2.19,2.19h-1.4a2.19,2.19,0,0,1-2.19-2.19h0V97Z" style="fill: #be7c5e"/>
    <path d="M126.54,97.84a8.33,8.33,0,0,0,5.78,0v-.71h-5.78Z" style="opacity: 0.10000000149011612;isolation: isolate"/>
    <circle cx="129.44" cy="89.96" r="8.28" style="fill: #be7c5e"/>
    <path d="M121.53,86.81h15.79s-1.35-6.38-7.32-6S121.53,86.81,121.53,86.81Z" style="fill: #333"/>
    <ellipse cx="121.34" cy="89.61" rx="0.77" ry="1.44" style="fill: #be7c5e"/>
    <ellipse cx="137.51" cy="89.61" rx="0.77" ry="1.44" style="fill: #be7c5e"/>
    <path d="M121.53,87h15.79s-1.35-6.37-7.32-6S121.53,87,121.53,87Z" style="opacity: 0.10000000149011612;isolation: isolate"/>
    <rect x="110.15" y="130.55" width="90.59" height="5.49" style="fill: #e0e0e0"/>
    <rect x="110.15" y="144.28" width="90.59" height="5.49" style="fill: #e0e0e0"/>
    <rect x="154.07" y="86.63" width="46.67" height="5.49" style="fill: #e0e0e0"/>
    <rect x="158.19" y="100.36" width="38.43" height="5.49" style="fill: #00b49d"/>
    <rect x="110.15" y="158" width="79.61" height="5.49" style="fill: #e0e0e0"/>
    <rect x="110.15" y="171.73" width="68.63" height="5.49" style="fill: #e0e0e0"/>
    <rect x="110.15" y="185.46" width="60.39" height="5.49" style="fill: #e0e0e0"/>
    <rect x="110.15" y="199.18" width="76.86" height="5.49" style="fill: #e0e0e0"/>
    <rect x="110.15" y="212.91" width="30.2" height="5.49" style="fill: #00b49d"/>
    <g style="opacity: 0.5">
      <circle cx="211.88" cy="215.71" r="27.43" style="fill: url(#g)"/>
    </g>
    <circle cx="211.88" cy="215.71" r="25.82" style="fill: #69f0ae"/>
    <polygon points="200.67 212.27 210.35 221.14 224.07 200.97 228.91 205.01 210.35 229.21 196.64 213.88 200.67 212.27" style="fill: #fff"/>
  </g>
</svg>
