<svg transform="rotate(-10 50 -50)" fill="#4C4848" id="Layer_1" data-name="Layer 1" xmlns="http://www.w3.org/2000/svg" viewBox="0 0 150 150"><defs><style>.cls-1,.cls-2{fill:none;}.cls-2{stroke:#000;stroke-linecap:round;stroke-linejoin:round;stroke-width:0;}</style></defs><title>sign</title><path class="cls-1" d="M75,6h0a4.81,4.81,0,0,0-4.81,4.81v.82h9.41v-.93a5,5,0,0,0-1.32-3.37A4.42,4.42,0,0,0,75.12,6Z" transform="translate(-28.07)"/><rect class="cls-1" x="42.11" y="53.91" width="9.41" height="2.62"/><line class="cls-2" x1="73" y1="95.95" x2="73" y2="95.95"/><polygon points="89.87 11.47 89.88 11.47 89.88 11.47 89.87 11.47"/><path d="M37.19,26.22h0a3,3,0,0,0,2,.82h0a2.84,2.84,0,0,0,2.07-.89h0l8.54-8.65h57.38A3,3,0,0,0,110,14.78h0v-.23a3,3,0,0,0-2.75-3H85.51v-.82h0v-.11a10.85,10.85,0,0,0-3-7.45h0A10.33,10.33,0,0,0,75.08,0H75A10.78,10.78,0,0,0,64.21,10.75h0v.82H48.71a2.93,2.93,0,0,0-2.09.88h0L37.17,22h0l0,0h0a3,3,0,0,0,.07,4.18ZM78.28,7.28a5,5,0,0,1,1.32,3.37v.93H70.18v-.82A4.81,4.81,0,0,1,75,6h.13A4.42,4.42,0,0,1,78.28,7.28Z" transform="translate(-28.07)"/><path d="M121.09,76h0l-13.17-13.8a3,3,0,0,0-2.16-.93,3,3,0,0,0-2,.82h0a3,3,0,0,0-.93,2.16,3,3,0,0,0,.81,2h0L114.76,78,99.82,92.94H34.6v-9a2.94,2.94,0,0,0-2.91-3h-.06a3,3,0,0,0-2.94,3v0h0V96h0a3,3,0,0,0,3,2.92H64.23v48.16h0a3,3,0,0,0,3,2.94h.06a3,3,0,0,0,2.93-3h0V98.89h9.41v32.85a3,3,0,0,0,3,2.75h.23a3,3,0,0,0,2.75-3V98.89h15.54a3,3,0,0,0,2.06-.83h0l17.93-17.89h0a3,3,0,0,0,0-4.15ZM101.07,96Z" transform="translate(-28.07)"/><path d="M28.89,34.51l3,3.13h0a3,3,0,0,0,2.12.89h0a3.35,3.35,0,0,0,1.94-.7l.05-.05,0,0a3,3,0,0,0,.11-4.2h0l-3-3.13h0a3,3,0,0,0-5.14,2.06,3,3,0,0,0,.82,2Z" transform="translate(-28.07)"/><polygon points="79.86 62.22 79.86 62.22 79.86 62.22 79.86 62.22"/><path d="M28.69,59.54V75h0a3,3,0,0,0,3,2.92h.05a3,3,0,0,0,2.9-3v0h0V62.48H66.89l.27,0H82.57l.25,0h18.8a3,3,0,0,0,2.75-3v-.24a3,3,0,0,0-3-2.74H85.51V53.91h32.61a3,3,0,0,0,3-2.94V14.21a3,3,0,0,0-3-2.75h-.24a3,3,0,0,0-2.75,3V47.93H50l-7.89-8.27h0A3,3,0,0,0,40,38.73a3,3,0,0,0-2.05.82h0a3,3,0,0,0-.11,4.21h0L46.57,53h0a3,3,0,0,0,2.13.9h15.5v2.62H31.56a3,3,0,0,0-2.87,3v0Zm50.9-5.63v2.62H70.18V53.91Z" transform="translate(-28.07)"/><path d="M82.77,137h-.23a3,3,0,0,0-3,2.74v4.36h-1a3,3,0,0,0-2.74,2.74h0V147a3,3,0,0,0,2.74,3h4a3,3,0,0,0,2.94-3h0v-7.33A3,3,0,0,0,82.77,137Z" transform="translate(-28.07)"/><polygon points="46.88 0 46.89 0 46.89 0 46.88 0"/></svg>