<svg xmlns="http://www.w3.org/2000/svg" viewBox="0 0 97.6 95.2">
  <pattern id="dotsPattern" patternUnits="userSpaceOnUse" width="4" height="4">
    <path fill='#252525' fill-opacity='1' d='M1 3h1v1H1V3zm2-2h1v1H3V1z' />
  </pattern>
  <path fill="none" d="M34.5 68.2c2.7 2.7 7 2.7 9.7 0l31.7-31.6c0-.1.1-.2.1-.2 2.7-2.8 2.6-7-.2-9.7s-7.1-2.5-9.7.2L39.3 53.7l-8-8c-2.6-2.5-6.8-2.5-9.4 0-2.7 2.6-2.8 7-.2 9.7l12.8 12.8z"/>
  <path d="M95.4 43.4c-.6-7.3-2.9-14.2-6.5-20.2-2.1-3.6-4.7-6.8-7.7-9.7C72.6 5.1 60.9 0 48 0 37.4 0 27.6 3.5 19.6 9.4 13 14.3 7.8 20.8 4.4 28.4c-1.5 3.4-2.6 7-3.3 10.8-.5 2.7-.8 5.5-.8 8.4 0 26.3 21.3 47.6 47.6 47.6 14.8 0 28-6.8 36.7-17.3 1.5-1.8 2.9-3.8 4.1-5.8 4.3-7.1 6.8-15.5 6.8-24.4.1-1.5 0-2.9-.1-4.3zm-73.5 2.3c2.6-2.5 6.8-2.5 9.4 0l8 8 26.8-26.8c2.6-2.7 6.9-2.9 9.7-.2s2.9 6.9.2 9.7c0 0-.1.1-.1.2L44.2 68.2c-2.7 2.7-7 2.7-9.7 0L21.7 55.4c-2.6-2.7-2.5-7.1.2-9.7z" fill="url(#dotsPattern)"/>
</svg>
